<svg width="32" height="32" viewBox="0 0 32 32" fill="none" xmlns="http://www.w3.org/2000/svg">
<path fill-rule="evenodd" clip-rule="evenodd" d="M16 32C24.8428 32 32 24.844 32 16C32 7.15723 24.844 0 16 0C7.15723 0 0 7.15601 0 16C0 24.8428 7.15601 32 16 32ZM27.0314 8.21127C28.5866 10.4112 29.5 13.0979 29.5 16C29.5 23.4612 23.4622 29.5 16 29.5C13.0981 29.5 10.4113 28.5866 8.21129 27.0314L27.0314 8.21127ZM25.0351 5.96492C22.6433 3.81047 19.476 2.5 16 2.5C8.53784 2.5 2.5 8.53882 2.5 16C2.5 19.4763 3.81054 22.6434 5.96491 25.0351L25.0351 5.96492Z" fill="white"/>
</svg>
