<svg width="1440" height="900" viewBox="0 0 1440 900" fill="none" xmlns="http://www.w3.org/2000/svg">
<g opacity="0.7">
<path fill-rule="evenodd" clip-rule="evenodd" d="M-73 1.1233H1544.55V0H-73V1.1233ZM-73 14.6029H1544.55V13.4796H-73V14.6029ZM1544.55 28.0825H-73V26.9592H1544.55V28.0825ZM-73 41.5621H1544.55V40.4388H-73V41.5621ZM1544.55 55.0417H-73V53.9184H1544.55V55.0417ZM-73 68.5213H1544.55V67.398H-73V68.5213ZM1544.55 82.0009H-73V80.8776H1544.55V82.0009ZM-73 95.4806H1544.55V94.3573H-73V95.4806ZM1544.55 108.96H-73V107.837H1544.55V108.96ZM-73 122.44H1544.55V121.316H-73V122.44ZM1544.55 135.919H-73V134.796H1544.55V135.919ZM-73 149.399H1544.55V148.276H-73V149.399ZM1544.55 162.879H-73V161.755H1544.55V162.879ZM-73 176.358H1544.55V175.235H-73V176.358ZM1544.55 189.838H-73V188.714H1544.55V189.838ZM-73 203.317H1544.55V202.194H-73V203.317ZM1544.55 216.797H-73V215.674H1544.55V216.797ZM-73 230.277H1544.55V229.153H-73V230.277ZM1544.55 243.756H-73V242.633H1544.55V243.756ZM-73 257.236H1544.55V256.113H-73V257.236ZM1544.55 270.715H-73V269.592H1544.55V270.715ZM-73 284.195H1544.55V283.072H-73V284.195ZM1544.55 297.675H-73V296.551H1544.55V297.675ZM-73 311.154H1544.55V310.031H-73V311.154ZM1544.55 324.634H-73V323.511H1544.55V324.634ZM-73 338.113H1544.55V336.99H-73V338.113ZM1544.55 351.593H-73V350.47H1544.55V351.593ZM-73 365.073H1544.55V363.949H-73V365.073ZM1544.55 378.552H-73V377.429H1544.55V378.552ZM-73 392.032H1544.55V390.909H-73V392.032ZM1544.55 405.511H-73V404.388H1544.55V405.511ZM-73 418.991H1544.55V417.868H-73V418.991ZM1544.55 432.471H-73V431.347H1544.55V432.471ZM-73 445.95H1544.55V444.827H-73V445.95ZM1544.55 459.43H-73V458.307H1544.55V459.43ZM-73 472.91H1544.55V471.786H-73V472.91ZM1544.55 486.389H-73V485.266H1544.55V486.389ZM-73 499.869H1544.55V498.745H-73V499.869ZM1544.55 513.348H-73V512.225H1544.55V513.348ZM-73 526.828H1544.55V525.705H-73V526.828ZM1544.55 540.308H-73V539.184H1544.55V540.308ZM-73 553.787H1544.55V552.664H-73V553.787ZM1544.55 567.267H-73V566.143H1544.55V567.267ZM-73 580.746H1544.55V579.623H-73V580.746ZM1544.55 594.226H-73V593.103H1544.55V594.226ZM-73 607.706H1544.55V606.582H-73V607.706ZM1544.55 621.185H-73V620.062H1544.55V621.185ZM-73 634.665H1544.55V633.542H-73V634.665ZM1544.55 648.144H-73V647.021H1544.55V648.144ZM-73 661.624H1544.55V660.501H-73V661.624ZM1544.55 675.104H-73V673.98H1544.55V675.104ZM-73 688.583H1544.55V687.46H-73V688.583ZM1544.55 702.063H-73V700.94H1544.55V702.063ZM-73 715.542H1544.55V714.419H-73V715.542ZM1544.55 729.022H-73V727.899H1544.55V729.022ZM-73 742.502H1544.55V741.378H-73V742.502ZM1544.55 755.981H-73V754.858H1544.55V755.981ZM-73 769.461H1544.55V768.338H-73V769.461ZM1544.55 782.94H-73V781.817H1544.55V782.94ZM-73 796.42H1544.55V795.297H-73V796.42ZM1544.55 809.9H-73V808.776H1544.55V809.9ZM-73 823.379H1544.55V822.256H-73V823.379ZM1544.55 836.859H-73V835.736H1544.55V836.859ZM-73 850.339H1544.55V849.215H-73V850.339ZM1544.55 863.818H-73V862.695H1544.55V863.818ZM-73 877.298H1544.55V876.174H-73V877.298ZM1544.55 890.777H-73V889.654H1544.55V890.777ZM-73 904.257H1544.55V903.134H-73V904.257Z" fill="#1D1324"/>
<path fill-rule="evenodd" clip-rule="evenodd" d="M-56 835.228V31H-55V835.228H-56ZM1 845V40.7719H2V845H1ZM51 40.7719V845H52V40.7719H51ZM101 845V40.7719H102V845H101ZM151 40.7719V845H152V40.7719H151ZM201 845V40.7719H202V845H201ZM251 40.7719V845H252V40.7719H251ZM301 845V40.7719H302V845H301ZM351 40.7719V845H352V40.7719H351ZM401 845V40.7719H402V845H401ZM451 40.7719V845H452V40.7719H451ZM501 845V40.7719H502V845H501ZM551 40.7719V845H552V40.7719H551ZM601 845V40.7719H602V845H601ZM651 40.7719V845H652V40.7719H651ZM701 845V40.7719H702V845H701ZM751 40.7719V845H752V40.7719H751ZM801 845V40.7719H802V845H801ZM851 40.7719V845H852V40.7719H851ZM901 845V40.7719H902V845H901ZM951 40.7719V845H952V40.7719H951ZM1001 845V40.7719H1002V845H1001ZM1051 40.7719V845H1052V40.7719H1051ZM1101 845V40.7719H1102V845H1101ZM1151 40.7719V845H1152V40.7719H1151ZM1201 845V40.7719H1202V845H1201ZM1251 40.7719V845H1252V40.7719H1251ZM1301 845V40.7719H1302V845H1301ZM1351 40.7719V845H1352V40.7719H1351Z" fill="#1D1324"/>
<path fill-rule="evenodd" clip-rule="evenodd" d="M-56 52H-55V53H-56V52ZM1 52H2V53H1V52ZM52 52H51V53H52V52ZM101 52H102V53H101V52ZM152 52H151V53H152V52ZM201 52H202V53H201V52ZM252 52H251V53H252V52ZM301 52H302V53H301V52ZM352 52H351V53H352V52ZM401 52H402V53H401V52ZM452 52H451V53H452V52ZM501 52H502V53H501V52ZM552 52H551V53H552V52ZM601 52H602V53H601V52ZM652 52H651V53H652V52ZM701 52H702V53H701V52ZM752 52H751V53H752V52ZM801 52H802V53H801V52ZM852 52H851V53H852V52ZM901 52H902V53H901V52ZM952 52H951V53H952V52ZM1001 52H1002V53H1001V52ZM1052 52H1051V53H1052V52ZM1101 52H1102V53H1101V52ZM1152 52H1151V53H1152V52ZM1201 52H1202V53H1201V52ZM1252 52H1251V53H1252V52ZM1301 52H1302V53H1301V52ZM1352 52H1351V53H1352V52ZM1401 52H1402V53H1401V52ZM-56 112H-55V113H-56V112ZM1 112H2V113H1V112ZM52 112H51V113H52V112ZM101 112H102V113H101V112ZM152 112H151V113H152V112ZM201 112H202V113H201V112ZM252 112H251V113H252V112ZM301 112H302V113H301V112ZM352 112H351V113H352V112ZM401 112H402V113H401V112ZM452 112H451V113H452V112ZM501 112H502V113H501V112ZM552 112H551V113H552V112ZM601 112H602V113H601V112ZM652 112H651V113H652V112ZM701 112H702V113H701V112ZM752 112H751V113H752V112ZM801 112H802V113H801V112ZM852 112H851V113H852V112ZM901 112H902V113H901V112ZM952 112H951V113H952V112ZM1001 112H1002V113H1001V112ZM1052 112H1051V113H1052V112ZM1101 112H1102V113H1101V112ZM1152 112H1151V113H1152V112ZM1201 112H1202V113H1201V112ZM1252 112H1251V113H1252V112ZM1301 112H1302V113H1301V112ZM1352 112H1351V113H1352V112ZM1401 112H1402V113H1401V112ZM-55 172H-56V173H-55V172ZM2 172H1V173H2V172ZM51 172H52V173H51V172ZM102 172H101V173H102V172ZM151 172H152V173H151V172ZM202 172H201V173H202V172ZM251 172H252V173H251V172ZM302 172H301V173H302V172ZM351 172H352V173H351V172ZM402 172H401V173H402V172ZM451 172H452V173H451V172ZM502 172H501V173H502V172ZM551 172H552V173H551V172ZM602 172H601V173H602V172ZM651 172H652V173H651V172ZM702 172H701V173H702V172ZM751 172H752V173H751V172ZM802 172H801V173H802V172ZM851 172H852V173H851V172ZM902 172H901V173H902V172ZM951 172H952V173H951V172ZM1002 172H1001V173H1002V172ZM1051 172H1052V173H1051V172ZM1102 172H1101V173H1102V172ZM1151 172H1152V173H1151V172ZM1202 172H1201V173H1202V172ZM1251 172H1252V173H1251V172ZM1302 172H1301V173H1302V172ZM1351 172H1352V173H1351V172ZM1402 172H1401V173H1402V172ZM-56 232H-55V233H-56V232ZM1 232H2V233H1V232ZM52 232H51V233H52V232ZM101 232H102V233H101V232ZM152 232H151V233H152V232ZM201 232H202V233H201V232ZM252 232H251V233H252V232ZM301 232H302V233H301V232ZM352 232H351V233H352V232ZM401 232H402V233H401V232ZM452 232H451V233H452V232ZM501 232H502V233H501V232ZM552 232H551V233H552V232ZM601 232H602V233H601V232ZM652 232H651V233H652V232ZM701 232H702V233H701V232ZM752 232H751V233H752V232ZM801 232H802V233H801V232ZM852 232H851V233H852V232ZM901 232H902V233H901V232ZM952 232H951V233H952V232ZM1001 232H1002V233H1001V232ZM1052 232H1051V233H1052V232ZM1101 232H1102V233H1101V232ZM1152 232H1151V233H1152V232ZM1201 232H1202V233H1201V232ZM1252 232H1251V233H1252V232ZM1301 232H1302V233H1301V232ZM1352 232H1351V233H1352V232ZM1401 232H1402V233H1401V232ZM-55 292H-56V293H-55V292ZM2 292H1V293H2V292ZM51 292H52V293H51V292ZM102 292H101V293H102V292ZM151 292H152V293H151V292ZM202 292H201V293H202V292ZM251 292H252V293H251V292ZM302 292H301V293H302V292ZM351 292H352V293H351V292ZM402 292H401V293H402V292ZM451 292H452V293H451V292ZM502 292H501V293H502V292ZM551 292H552V293H551V292ZM602 292H601V293H602V292ZM651 292H652V293H651V292ZM702 292H701V293H702V292ZM751 292H752V293H751V292ZM802 292H801V293H802V292ZM851 292H852V293H851V292ZM902 292H901V293H902V292ZM951 292H952V293H951V292ZM1002 292H1001V293H1002V292ZM1051 292H1052V293H1051V292ZM1102 292H1101V293H1102V292ZM1151 292H1152V293H1151V292ZM1202 292H1201V293H1202V292ZM1251 292H1252V293H1251V292ZM1302 292H1301V293H1302V292ZM1351 292H1352V293H1351V292ZM1402 292H1401V293H1402V292ZM-56 352H-55V353H-56V352ZM1 352H2V353H1V352ZM52 352H51V353H52V352ZM101 352H102V353H101V352ZM152 352H151V353H152V352ZM201 352H202V353H201V352ZM252 352H251V353H252V352ZM301 352H302V353H301V352ZM352 352H351V353H352V352ZM401 352H402V353H401V352ZM452 352H451V353H452V352ZM501 352H502V353H501V352ZM552 352H551V353H552V352ZM601 352H602V353H601V352ZM652 352H651V353H652V352ZM701 352H702V353H701V352ZM752 352H751V353H752V352ZM801 352H802V353H801V352ZM852 352H851V353H852V352ZM901 352H902V353H901V352ZM952 352H951V353H952V352ZM1001 352H1002V353H1001V352ZM1052 352H1051V353H1052V352ZM1101 352H1102V353H1101V352ZM1152 352H1151V353H1152V352ZM1201 352H1202V353H1201V352ZM1252 352H1251V353H1252V352ZM1301 352H1302V353H1301V352ZM1352 352H1351V353H1352V352ZM1401 352H1402V353H1401V352ZM-55 412H-56V413H-55V412ZM2 412H1V413H2V412ZM51 412H52V413H51V412ZM102 412H101V413H102V412ZM151 412H152V413H151V412ZM202 412H201V413H202V412ZM251 412H252V413H251V412ZM302 412H301V413H302V412ZM351 412H352V413H351V412ZM402 412H401V413H402V412ZM451 412H452V413H451V412ZM502 412H501V413H502V412ZM551 412H552V413H551V412ZM602 412H601V413H602V412ZM651 412H652V413H651V412ZM702 412H701V413H702V412ZM751 412H752V413H751V412ZM802 412H801V413H802V412ZM851 412H852V413H851V412ZM902 412H901V413H902V412ZM951 412H952V413H951V412ZM1002 412H1001V413H1002V412ZM1051 412H1052V413H1051V412ZM1102 412H1101V413H1102V412ZM1151 412H1152V413H1151V412ZM1202 412H1201V413H1202V412ZM1251 412H1252V413H1251V412ZM1302 412H1301V413H1302V412ZM1351 412H1352V413H1351V412ZM1402 412H1401V413H1402V412ZM-56 472H-55V473H-56V472ZM1 472H2V473H1V472ZM52 472H51V473H52V472ZM101 472H102V473H101V472ZM152 472H151V473H152V472ZM201 472H202V473H201V472ZM252 472H251V473H252V472ZM301 472H302V473H301V472ZM352 472H351V473H352V472ZM401 472H402V473H401V472ZM452 472H451V473H452V472ZM501 472H502V473H501V472ZM552 472H551V473H552V472ZM601 472H602V473H601V472ZM652 472H651V473H652V472ZM701 472H702V473H701V472ZM752 472H751V473H752V472ZM801 472H802V473H801V472ZM852 472H851V473H852V472ZM901 472H902V473H901V472ZM952 472H951V473H952V472ZM1001 472H1002V473H1001V472ZM1052 472H1051V473H1052V472ZM1101 472H1102V473H1101V472ZM1152 472H1151V473H1152V472ZM1201 472H1202V473H1201V472ZM1252 472H1251V473H1252V472ZM1301 472H1302V473H1301V472ZM1352 472H1351V473H1352V472ZM1401 472H1402V473H1401V472ZM-55 532H-56V533H-55V532ZM2 532H1V533H2V532ZM51 532H52V533H51V532ZM102 532H101V533H102V532ZM151 532H152V533H151V532ZM202 532H201V533H202V532ZM251 532H252V533H251V532ZM302 532H301V533H302V532ZM351 532H352V533H351V532ZM402 532H401V533H402V532ZM451 532H452V533H451V532ZM502 532H501V533H502V532ZM551 532H552V533H551V532ZM602 532H601V533H602V532ZM651 532H652V533H651V532ZM702 532H701V533H702V532ZM751 532H752V533H751V532ZM802 532H801V533H802V532ZM851 532H852V533H851V532ZM902 532H901V533H902V532ZM951 532H952V533H951V532ZM1002 532H1001V533H1002V532ZM1051 532H1052V533H1051V532ZM1102 532H1101V533H1102V532ZM1151 532H1152V533H1151V532ZM1202 532H1201V533H1202V532ZM1251 532H1252V533H1251V532ZM1302 532H1301V533H1302V532ZM1351 532H1352V533H1351V532ZM1402 532H1401V533H1402V532ZM-56 592H-55V593H-56V592ZM1 592H2V593H1V592ZM52 592H51V593H52V592ZM101 592H102V593H101V592ZM152 592H151V593H152V592ZM201 592H202V593H201V592ZM252 592H251V593H252V592ZM301 592H302V593H301V592ZM352 592H351V593H352V592ZM401 592H402V593H401V592ZM452 592H451V593H452V592ZM501 592H502V593H501V592ZM552 592H551V593H552V592ZM601 592H602V593H601V592ZM652 592H651V593H652V592ZM701 592H702V593H701V592ZM752 592H751V593H752V592ZM801 592H802V593H801V592ZM852 592H851V593H852V592ZM901 592H902V593H901V592ZM952 592H951V593H952V592ZM1001 592H1002V593H1001V592ZM1052 592H1051V593H1052V592ZM1101 592H1102V593H1101V592ZM1152 592H1151V593H1152V592ZM1201 592H1202V593H1201V592ZM1252 592H1251V593H1252V592ZM1301 592H1302V593H1301V592ZM1352 592H1351V593H1352V592ZM1401 592H1402V593H1401V592ZM-55 652H-56V653H-55V652ZM2 652H1V653H2V652ZM51 652H52V653H51V652ZM102 652H101V653H102V652ZM151 652H152V653H151V652ZM202 652H201V653H202V652ZM251 652H252V653H251V652ZM302 652H301V653H302V652ZM351 652H352V653H351V652ZM402 652H401V653H402V652ZM451 652H452V653H451V652ZM502 652H501V653H502V652ZM551 652H552V653H551V652ZM602 652H601V653H602V652ZM651 652H652V653H651V652ZM702 652H701V653H702V652ZM751 652H752V653H751V652ZM802 652H801V653H802V652ZM851 652H852V653H851V652ZM902 652H901V653H902V652ZM951 652H952V653H951V652ZM1002 652H1001V653H1002V652ZM1051 652H1052V653H1051V652ZM1102 652H1101V653H1102V652ZM1151 652H1152V653H1151V652ZM1202 652H1201V653H1202V652ZM1251 652H1252V653H1251V652ZM1302 652H1301V653H1302V652ZM1351 652H1352V653H1351V652ZM1402 652H1401V653H1402V652ZM-56 712H-55V713H-56V712ZM1 712H2V713H1V712ZM52 712H51V713H52V712ZM101 712H102V713H101V712ZM152 712H151V713H152V712ZM201 712H202V713H201V712ZM252 712H251V713H252V712ZM301 712H302V713H301V712ZM352 712H351V713H352V712ZM401 712H402V713H401V712ZM452 712H451V713H452V712ZM501 712H502V713H501V712ZM552 712H551V713H552V712ZM601 712H602V713H601V712ZM652 712H651V713H652V712ZM701 712H702V713H701V712ZM752 712H751V713H752V712ZM801 712H802V713H801V712ZM852 712H851V713H852V712ZM901 712H902V713H901V712ZM952 712H951V713H952V712ZM1001 712H1002V713H1001V712ZM1052 712H1051V713H1052V712ZM1101 712H1102V713H1101V712ZM1152 712H1151V713H1152V712ZM1201 712H1202V713H1201V712ZM1252 712H1251V713H1252V712ZM1301 712H1302V713H1301V712ZM1352 712H1351V713H1352V712ZM1401 712H1402V713H1401V712ZM-55 772H-56V773H-55V772ZM2 772H1V773H2V772ZM51 772H52V773H51V772ZM102 772H101V773H102V772ZM151 772H152V773H151V772ZM202 772H201V773H202V772ZM251 772H252V773H251V772ZM302 772H301V773H302V772ZM351 772H352V773H351V772ZM402 772H401V773H402V772ZM451 772H452V773H451V772ZM502 772H501V773H502V772ZM551 772H552V773H551V772ZM602 772H601V773H602V772ZM651 772H652V773H651V772ZM702 772H701V773H702V772ZM751 772H752V773H751V772ZM802 772H801V773H802V772ZM851 772H852V773H851V772ZM902 772H901V773H902V772ZM951 772H952V773H951V772ZM1002 772H1001V773H1002V772ZM1051 772H1052V773H1051V772ZM1102 772H1101V773H1102V772ZM1151 772H1152V773H1151V772ZM1202 772H1201V773H1202V772ZM1251 772H1252V773H1251V772ZM1302 772H1301V773H1302V772ZM1351 772H1352V773H1351V772ZM1402 772H1401V773H1402V772ZM-56 832H-55V833H-56V832ZM1 832H2V833H1V832ZM52 832H51V833H52V832ZM101 832H102V833H101V832ZM152 832H151V833H152V832ZM201 832H202V833H201V832ZM252 832H251V833H252V832ZM301 832H302V833H301V832ZM352 832H351V833H352V832ZM401 832H402V833H401V832ZM452 832H451V833H452V832ZM501 832H502V833H501V832ZM552 832H551V833H552V832ZM601 832H602V833H601V832ZM652 832H651V833H652V832ZM701 832H702V833H701V832ZM752 832H751V833H752V832ZM801 832H802V833H801V832ZM852 832H851V833H852V832ZM901 832H902V833H901V832ZM952 832H951V833H952V832ZM1001 832H1002V833H1001V832ZM1052 832H1051V833H1052V832ZM1101 832H1102V833H1101V832ZM1152 832H1151V833H1152V832ZM1201 832H1202V833H1201V832ZM1252 832H1251V833H1252V832ZM1301 832H1302V833H1301V832ZM1352 832H1351V833H1352V832ZM1401 832H1402V833H1401V832Z" fill="#785D8B"/>
</g>
</svg>
