<svg width="581" height="612" viewBox="0 0 581 612" fill="none" xmlns="http://www.w3.org/2000/svg">
<g opacity="0.1" filter="url(#filter0_f)">
<line y1="-0.5" x2="508.87" y2="-0.5" transform="matrix(-0.908143 0.41866 0 -1 509.157 334.696)" stroke="#B02389"/>
<line y1="-0.5" x2="278.898" y2="-0.5" transform="matrix(3.79769e-08 1 -0.908143 0.41866 47.0305 268.841)" stroke="#B02389"/>
<line y1="-0.5" x2="9.41429" y2="-0.5" transform="matrix(0 1 -0.908143 0.41866 93.0286 523.004)" stroke="#B02389"/>
<line y1="-0.5" x2="8.15518" y2="-0.5" transform="matrix(0.908143 -0.41866 0 1 43.9633 491.491)" stroke="#B02389"/>
<line y1="-0.5" x2="8.15518" y2="-0.5" transform="matrix(0.908143 -0.41866 0 1 43.9633 436.182)" stroke="#B02389"/>
<line y1="-0.5" x2="8.15518" y2="-0.5" transform="matrix(0.908143 -0.41866 0 1 43.9633 380.873)" stroke="#B02389"/>
<line y1="-0.5" x2="8.15518" y2="-0.5" transform="matrix(0.908143 -0.41866 0 1 43.9633 325.564)" stroke="#B02389"/>
<line y1="-0.5" x2="8.15518" y2="-0.5" transform="matrix(0.908143 -0.41866 0 1 43.9633 270.255)" stroke="#B02389"/>
<line y1="-0.5" x2="9.41429" y2="-0.5" transform="matrix(0 1 -0.908143 0.41866 139.317 501.664)" stroke="#B02389"/>
<line y1="-0.5" x2="9.41429" y2="-0.5" transform="matrix(0 1 -0.908143 0.41866 185.605 480.325)" stroke="#B02389"/>
<line y1="-0.5" x2="9.41429" y2="-0.5" transform="matrix(0 1 -0.908143 0.41866 231.892 458.987)" stroke="#B02389"/>
<line y1="-0.5" x2="9.41429" y2="-0.5" transform="matrix(0 1 -0.908143 0.41866 278.18 437.647)" stroke="#B02389"/>
<line y1="-0.5" x2="9.41429" y2="-0.5" transform="matrix(0 1 -0.908143 0.41866 324.468 416.308)" stroke="#B02389"/>
<line y1="-0.5" x2="9.41429" y2="-0.5" transform="matrix(0 1 -0.908143 0.41866 370.756 394.969)" stroke="#B02389"/>
<line y1="-0.5" x2="9.41429" y2="-0.5" transform="matrix(0 1 -0.908143 0.41866 417.044 373.63)" stroke="#B02389"/>
<line y1="-0.5" x2="9.41429" y2="-0.5" transform="matrix(0 1 -0.908143 0.41866 463.332 352.291)" stroke="#B02389"/>
<line y1="-0.5" x2="9.41429" y2="-0.5" transform="matrix(0 1 -0.908143 0.41866 509.62 330.952)" stroke="#B02389"/>
<path d="M23.0569 561.792C23.0569 563.169 22.7982 564.341 22.2809 565.308C21.7635 566.276 21.0062 566.99 20.0087 567.449C19.0237 567.903 18.2705 567.893 17.749 567.418C17.2276 566.943 16.9606 566.04 16.9482 564.711V562.879C16.9482 561.489 17.2089 560.314 17.7304 559.353C18.256 558.391 19.0113 557.683 19.9963 557.229C20.9813 556.774 21.7346 556.785 22.256 557.26C22.7775 557.731 23.0445 558.631 23.0569 559.96V561.792ZM21.2628 560.61C21.2628 559.785 21.1593 559.233 20.9524 558.955C20.7496 558.67 20.4309 558.628 19.9963 558.828C19.5742 559.023 19.2617 559.347 19.0589 559.8C18.8603 560.247 18.7547 560.854 18.7423 561.621V564.041C18.7423 564.852 18.8416 565.41 19.0403 565.715C19.2431 566.014 19.5659 566.061 20.0087 565.857C20.4474 565.654 20.7641 565.319 20.9586 564.851C21.1531 564.383 21.2545 563.758 21.2628 562.975V560.61Z" fill="#B02389"/>
<path d="M17.7691 507.152L11.5735 510.009V508.655L14.4975 503.875C14.8989 503.207 15.1948 502.649 15.3852 502.202C15.5797 501.752 15.677 501.365 15.677 501.042C15.677 500.6 15.5756 500.3 15.3728 500.143C15.17 499.981 14.8803 499.987 14.5037 500.161C14.0981 500.348 13.7774 500.65 13.5414 501.069C13.3097 501.481 13.1938 501.938 13.1938 502.439L11.3935 503.269C11.3935 502.663 11.5238 502.049 11.7846 501.428C12.0495 500.804 12.4219 500.241 12.902 499.737C13.3821 499.229 13.9263 498.834 14.5347 498.554C15.4659 498.124 16.1881 498.037 16.7013 498.293C17.2187 498.547 17.4773 499.123 17.4773 500.02C17.4773 500.512 17.3614 501.067 17.1297 501.684C16.8979 502.302 16.5006 503.08 15.9377 504.018L13.8829 507.351L17.7691 505.56V507.152ZM24.958 499.723C24.958 501.099 24.6993 502.271 24.182 503.239C23.6646 504.207 22.9073 504.92 21.9098 505.38C20.9248 505.834 20.1716 505.824 19.6501 505.349C19.1287 504.874 18.8617 503.971 18.8493 502.642V500.81C18.8493 499.42 19.11 498.245 19.6315 497.284C20.1571 496.322 20.9124 495.613 21.8974 495.159C22.8824 494.705 23.6357 494.716 24.1571 495.191C24.6786 495.661 24.9456 496.561 24.958 497.891V499.723ZM23.1639 498.54C23.1639 497.716 23.0604 497.164 22.8535 496.886C22.6507 496.601 22.332 496.559 21.8974 496.759C21.4753 496.954 21.1628 497.278 20.96 497.731C20.7614 498.178 20.6558 498.785 20.6434 499.552V501.972C20.6434 502.783 20.7427 503.341 20.9414 503.646C21.1442 503.944 21.467 503.992 21.9098 503.787C22.3485 503.585 22.6652 503.25 22.8597 502.782C23.0542 502.314 23.1556 501.689 23.1639 500.906V498.54Z" fill="#B02389"/>
<path d="M93.7541 555.038L89.1602 556.582L89.1602 551.004L90.6563 550.314L90.6563 554.272L92.5994 553.623C92.3718 553.258 92.258 552.812 92.258 552.283C92.258 551.335 92.5249 550.469 93.0588 549.685C93.5927 548.901 94.3398 548.288 95.2999 547.845C95.8835 547.576 96.407 547.472 96.8706 547.531C97.3299 547.589 97.6879 547.811 97.9445 548.198C98.197 548.588 98.3232 549.127 98.3232 549.815C98.3232 550.416 98.2136 551.025 97.9942 551.641C97.7707 552.259 97.4582 552.811 97.0568 553.297C96.6553 553.778 96.198 554.146 95.6848 554.401L95.6848 552.446C96.0614 552.232 96.3553 551.953 96.5664 551.609C96.7733 551.263 96.8768 550.89 96.8768 550.489C96.8768 550.042 96.7319 549.765 96.4422 549.657C96.1484 549.551 95.7345 549.621 95.2006 549.867C94.6874 550.103 94.2942 550.424 94.0211 550.827C93.7479 551.231 93.6113 551.689 93.6113 552.199C93.6113 552.668 93.7231 552.997 93.9466 553.186L94.108 553.303L93.7541 555.038Z" fill="#B02389"/>
<path d="M139.606 537.434L139.606 539.41L132.691 542.598L133.355 544.65L131.896 545.323L130.555 541.819L130.555 541.607L139.606 537.434ZM135.869 529.218C137.119 528.642 138.075 528.486 138.737 528.75C139.4 529.014 139.731 529.696 139.731 530.794C139.731 531.879 139.406 532.858 138.756 533.732C138.106 534.606 137.175 535.329 135.962 535.901L134.299 536.668C133.036 537.25 132.078 537.405 131.424 537.132C130.77 536.855 130.443 536.174 130.443 535.089C130.443 534.005 130.768 533.025 131.418 532.152C132.064 531.28 132.993 530.558 134.206 529.985L135.869 529.218ZM134.044 532.035C133.295 532.38 132.751 532.745 132.411 533.129C132.068 533.511 131.896 533.941 131.896 534.42C131.896 534.884 132.06 535.153 132.387 535.226C132.709 535.296 133.216 535.178 133.908 534.873L136.105 533.86C136.842 533.52 137.39 533.158 137.75 532.774C138.106 532.386 138.284 531.949 138.284 531.461C138.284 530.978 138.112 530.708 137.769 530.653C137.425 530.597 136.9 530.727 136.192 531.045L134.044 532.035Z" fill="#B02389"/>
<path d="M191.749 513.396L191.749 515.372L184.833 518.56L185.498 520.612L184.039 521.285L182.698 517.781L182.698 517.569L191.749 513.396ZM187.304 511.911L182.71 513.455L182.71 507.877L184.206 507.187L184.206 511.145L186.149 510.495C185.922 510.131 185.808 509.684 185.808 509.156C185.808 508.208 186.075 507.342 186.609 506.558C187.143 505.774 187.89 505.161 188.85 504.718C189.434 504.449 189.957 504.345 190.421 504.404C190.88 504.461 191.238 504.684 191.495 505.071C191.747 505.461 191.873 506 191.873 506.688C191.873 507.289 191.764 507.898 191.544 508.514C191.321 509.132 191.008 509.684 190.607 510.17C190.205 510.651 189.748 511.019 189.235 511.274L189.235 509.319C189.611 509.104 189.905 508.825 190.116 508.482C190.323 508.136 190.427 507.762 190.427 507.361C190.427 506.915 190.282 506.637 189.992 506.529C189.698 506.423 189.285 506.493 188.751 506.74C188.237 506.976 187.844 507.296 187.571 507.7C187.298 508.104 187.161 508.561 187.161 509.072C187.161 509.541 187.273 509.87 187.497 510.059L187.658 510.176L187.304 511.911Z" fill="#B02389"/>
<path d="M237.757 490.163L237.757 496.985L236.528 497.552L233.412 495.769C232.973 495.529 232.59 495.379 232.263 495.321C231.936 495.257 231.626 495.293 231.332 495.429C230.931 495.614 230.616 495.87 230.388 496.199C230.157 496.529 230.041 496.901 230.041 497.316C230.041 497.762 230.181 498.051 230.463 498.181C230.74 498.308 231.106 498.267 231.562 498.057L231.562 500.039C231.011 500.293 230.508 500.382 230.053 500.304C229.598 500.222 229.242 499.976 228.985 499.566C228.725 499.158 228.594 498.618 228.594 497.949C228.594 496.923 228.818 496.025 229.265 495.254C229.712 494.478 230.343 493.902 231.158 493.526C231.605 493.32 232.06 493.238 232.524 493.279C232.988 493.321 233.528 493.51 234.144 493.845L236.311 495.109L236.311 490.83L237.757 490.163ZM234.02 483.97C235.27 483.393 236.226 483.238 236.888 483.502C237.55 483.766 237.881 484.448 237.881 485.546C237.881 486.631 237.557 487.61 236.907 488.484C236.257 489.357 235.326 490.081 234.113 490.653L232.449 491.42C231.187 492.002 230.229 492.157 229.575 491.884C228.921 491.607 228.594 490.926 228.594 489.841C228.594 488.756 228.919 487.777 229.569 486.903C230.215 486.032 231.144 485.309 232.356 484.737L234.02 483.97ZM232.195 486.787C231.446 487.132 230.902 487.497 230.562 487.881C230.219 488.263 230.047 488.693 230.047 489.171C230.047 489.636 230.21 489.905 230.537 489.978C230.86 490.047 231.367 489.93 232.058 489.625L234.256 488.612C234.993 488.272 235.541 487.91 235.901 487.525C236.257 487.138 236.435 486.7 236.435 486.213C236.435 485.73 236.263 485.46 235.92 485.404C235.576 485.349 235.051 485.479 234.343 485.796L232.195 486.787Z" fill="#B02389"/>
<path d="M283.765 468.953L283.765 475.775L282.536 476.342L279.42 474.559C278.981 474.319 278.598 474.169 278.271 474.111C277.944 474.047 277.634 474.083 277.34 474.219C276.939 474.404 276.624 474.66 276.397 474.988C276.165 475.319 276.049 475.691 276.049 476.106C276.049 476.552 276.19 476.841 276.471 476.971C276.748 477.098 277.115 477.057 277.57 476.847L277.57 478.829C277.019 479.083 276.517 479.171 276.061 479.094C275.606 479.012 275.25 478.766 274.994 478.356C274.733 477.948 274.602 477.408 274.602 476.738C274.602 475.713 274.826 474.815 275.273 474.044C275.72 473.268 276.351 472.692 277.166 472.316C277.613 472.11 278.069 472.028 278.532 472.069C278.996 472.111 279.536 472.299 280.152 472.635L282.319 473.899L282.319 469.62L283.765 468.953ZM279.321 469.491L274.727 471.035L274.727 465.457L276.223 464.767L276.223 468.725L278.166 468.075C277.938 467.711 277.824 467.264 277.824 466.736C277.824 465.788 278.091 464.922 278.625 464.138C279.159 463.354 279.906 462.741 280.866 462.298C281.45 462.029 281.973 461.924 282.437 461.984C282.896 462.041 283.254 462.264 283.511 462.651C283.763 463.041 283.89 463.579 283.89 464.268C283.89 464.869 283.78 465.478 283.561 466.094C283.337 466.712 283.025 467.264 282.623 467.75C282.222 468.231 281.764 468.599 281.251 468.854L281.251 466.899C281.628 466.684 281.922 466.405 282.133 466.062C282.34 465.716 282.443 465.342 282.443 464.941C282.443 464.495 282.298 464.217 282.009 464.109C281.715 464.003 281.301 464.073 280.767 464.319C280.254 464.556 279.861 464.876 279.587 465.28C279.314 465.684 279.178 466.141 279.178 466.652C279.178 467.121 279.289 467.45 279.513 467.639L279.674 467.756L279.321 469.491Z" fill="#B02389"/>
<path d="M324.46 455.005L324.46 453.952C324.46 453.451 324.346 453.132 324.118 452.995C323.891 452.859 323.588 452.877 323.212 453.051C322.848 453.219 322.564 453.47 322.361 453.805C322.159 454.136 322.057 454.511 322.057 454.93C322.057 455.308 322.152 455.581 322.343 455.748C322.529 455.918 322.773 455.933 323.075 455.794L323.075 457.769C322.603 457.987 322.181 458.042 321.809 457.936C321.432 457.827 321.138 457.571 320.927 457.167C320.716 456.758 320.611 456.251 320.611 455.645C320.611 454.592 320.84 453.661 321.3 452.852C321.755 452.045 322.384 451.457 323.187 451.087C323.601 450.896 323.982 450.859 324.329 450.977C324.677 451.095 324.944 451.336 325.13 451.702C325.312 451.057 325.585 450.514 325.95 450.073C326.314 449.627 326.744 449.29 327.241 449.061C328.044 448.691 328.687 448.717 329.171 449.141C329.656 449.561 329.898 450.301 329.898 451.363C329.898 452.357 329.66 453.28 329.184 454.133C328.708 454.981 328.079 455.585 327.297 455.946L327.297 453.97C327.636 453.814 327.913 453.547 328.129 453.17C328.344 452.788 328.451 452.392 328.451 451.982C328.451 451.513 328.34 451.197 328.116 451.036C327.888 450.872 327.588 450.876 327.216 451.048C326.314 451.464 325.863 452.218 325.863 453.312L325.863 454.358L324.46 455.005ZM326.036 441.549C327.286 440.973 328.242 440.817 328.905 441.082C329.567 441.346 329.898 442.028 329.898 443.126C329.898 444.21 329.573 445.19 328.923 446.063C328.273 446.937 327.342 447.66 326.13 448.233L324.466 449C323.204 449.582 322.245 449.737 321.592 449.464C320.938 449.187 320.611 448.506 320.611 447.421C320.611 446.336 320.936 445.357 321.585 444.483C322.231 443.611 323.16 442.889 324.373 442.316L326.036 441.549ZM324.211 444.366C323.462 444.712 322.918 445.077 322.579 445.461C322.235 445.843 322.063 446.273 322.063 446.751C322.063 447.216 322.227 447.485 322.554 447.557C322.877 447.627 323.384 447.51 324.075 447.205L326.272 446.192C327.009 445.852 327.557 445.49 327.917 445.105C328.273 444.718 328.451 444.28 328.451 443.793C328.451 443.31 328.28 443.04 327.936 442.984C327.593 442.928 327.067 443.059 326.359 443.376L324.211 444.366Z" fill="#B02389"/>
<path d="M370.468 433.795L370.468 432.742C370.468 432.241 370.354 431.922 370.126 431.785C369.899 431.649 369.597 431.667 369.22 431.841C368.856 432.009 368.572 432.26 368.37 432.595C368.167 432.926 368.065 433.301 368.065 433.72C368.065 434.098 368.161 434.371 368.351 434.538C368.537 434.708 368.781 434.723 369.083 434.583L369.083 436.559C368.612 436.777 368.19 436.832 367.817 436.726C367.44 436.617 367.147 436.36 366.935 435.956C366.724 435.548 366.619 435.041 366.619 434.434C366.619 433.382 366.849 432.451 367.308 431.642C367.763 430.835 368.392 430.247 369.195 429.877C369.609 429.686 369.99 429.649 370.337 429.767C370.685 429.885 370.952 430.126 371.138 430.492C371.32 429.847 371.594 429.304 371.958 428.863C372.322 428.417 372.752 428.08 373.249 427.851C374.052 427.48 374.696 427.507 375.18 427.931C375.664 428.351 375.906 429.091 375.906 430.153C375.906 431.147 375.668 432.07 375.192 432.923C374.716 433.771 374.087 434.375 373.305 434.736L373.305 432.76C373.644 432.604 373.922 432.337 374.137 431.96C374.352 431.578 374.46 431.182 374.46 430.772C374.46 430.303 374.348 429.987 374.124 429.826C373.897 429.662 373.597 429.666 373.224 429.838C372.322 430.254 371.871 431.008 371.871 432.102L371.871 433.148L370.468 433.795ZM371.337 427.071L366.743 428.615L366.743 423.036L368.239 422.347L368.239 426.305L370.182 425.655C369.955 425.291 369.841 424.844 369.841 424.315C369.841 423.367 370.108 422.502 370.642 421.718C371.176 420.934 371.923 420.32 372.883 419.878C373.466 419.609 373.99 419.504 374.453 419.564C374.913 419.621 375.271 419.843 375.527 420.231C375.78 420.62 375.906 421.159 375.906 421.847C375.906 422.449 375.796 423.058 375.577 423.674C375.354 424.292 375.041 424.844 374.64 425.33C374.238 425.811 373.781 426.179 373.268 426.434L373.268 424.479C373.644 424.264 373.938 423.985 374.149 423.642C374.356 423.296 374.46 422.922 374.46 422.521C374.46 422.074 374.315 421.797 374.025 421.689C373.731 421.583 373.317 421.653 372.783 421.899C372.27 422.136 371.877 422.456 371.604 422.86C371.331 423.264 371.194 423.721 371.194 424.231C371.194 424.701 371.306 425.03 371.529 425.219L371.691 425.336L371.337 427.071Z" fill="#B02389"/>
<path d="M418.388 407.868L418.388 406.74L419.835 406.074L419.835 407.201L421.79 406.3L421.79 408.276L419.835 409.177L419.835 413.258L418.705 413.868L412.751 412.463L412.751 410.467L418.388 407.868ZM418.388 412.045L418.388 409.844L415.197 411.315L415.402 411.35L418.388 412.045ZM418.053 399.129C419.303 398.553 420.259 398.397 420.921 398.662C421.583 398.926 421.914 399.607 421.914 400.706C421.914 401.79 421.589 402.769 420.94 403.643C420.29 404.517 419.359 405.24 418.146 405.813L416.482 406.58C415.22 407.162 414.262 407.316 413.608 407.044C412.954 406.766 412.627 406.085 412.627 405.001C412.627 403.916 412.952 402.937 413.602 402.063C414.247 401.191 415.177 400.469 416.389 399.896L418.053 399.129ZM416.228 401.946C415.479 402.292 414.934 402.656 414.595 403.041C414.252 403.422 414.08 403.853 414.08 404.331C414.08 404.796 414.243 405.065 414.57 405.137C414.893 405.207 415.4 405.09 416.091 404.785L418.289 403.772C419.025 403.432 419.574 403.07 419.934 402.685C420.29 402.298 420.468 401.86 420.468 401.372C420.468 400.889 420.296 400.62 419.953 400.564C419.609 400.508 419.083 400.639 418.376 400.956L416.228 401.946Z" fill="#B02389"/>
<path d="M464.396 386.658L464.396 385.53L465.843 384.863L465.843 385.991L467.798 385.09L467.798 387.065L465.843 387.967L465.843 392.048L464.713 392.658L458.759 391.253L458.759 389.257L464.396 386.658ZM464.396 390.835L464.396 388.634L461.205 390.105L461.41 390.14L464.396 390.835ZM463.353 384.651L458.759 386.194L458.759 380.616L460.256 379.927L460.256 383.885L462.199 383.235C461.971 382.87 461.857 382.424 461.857 381.895C461.857 380.947 462.124 380.081 462.658 379.297C463.192 378.514 463.939 377.9 464.899 377.458C465.483 377.189 466.006 377.084 466.47 377.144C466.929 377.201 467.287 377.423 467.544 377.811C467.796 378.2 467.923 378.739 467.923 379.427C467.923 380.029 467.813 380.638 467.593 381.254C467.37 381.872 467.058 382.424 466.656 382.909C466.255 383.391 465.797 383.759 465.284 384.014L465.284 382.059C465.661 381.844 465.955 381.565 466.166 381.222C466.373 380.875 466.476 380.502 466.476 380.101C466.476 379.654 466.331 379.377 466.041 379.269C465.748 379.163 465.334 379.233 464.8 379.479C464.287 379.716 463.894 380.036 463.62 380.44C463.347 380.844 463.211 381.301 463.211 381.811C463.211 382.281 463.322 382.61 463.546 382.798L463.707 382.915L463.353 384.651Z" fill="#B02389"/>
<path d="M509.362 371.48L504.768 373.023L504.768 367.445L506.264 366.756L506.264 370.714L508.207 370.064C507.979 369.699 507.866 369.253 507.866 368.724C507.866 367.776 508.132 366.91 508.666 366.126C509.2 365.343 509.947 364.729 510.907 364.287C511.491 364.018 512.015 363.913 512.478 363.973C512.937 364.03 513.295 364.252 513.552 364.64C513.805 365.029 513.931 365.568 513.931 366.256C513.931 366.858 513.821 367.467 513.602 368.083C513.378 368.701 513.066 369.253 512.664 369.738C512.263 370.22 511.806 370.588 511.292 370.843L511.292 368.888C511.669 368.673 511.963 368.394 512.174 368.05C512.381 367.704 512.484 367.331 512.484 366.93C512.484 366.483 512.339 366.206 512.05 366.098C511.756 365.992 511.342 366.062 510.808 366.308C510.295 366.545 509.902 366.865 509.629 367.269C509.355 367.673 509.219 368.13 509.219 368.64C509.219 369.11 509.331 369.439 509.554 369.627L509.716 369.744L509.362 371.48ZM510.069 356.709C511.319 356.133 512.275 355.977 512.937 356.241C513.6 356.506 513.931 357.187 513.931 358.285C513.931 359.37 513.606 360.349 512.956 361.223C512.306 362.097 511.375 362.82 510.162 363.393L508.499 364.16C507.236 364.742 506.278 364.896 505.624 364.624C504.971 364.346 504.644 363.665 504.644 362.581C504.644 361.496 504.968 360.517 505.618 359.643C506.264 358.771 507.193 358.049 508.406 357.476L510.069 356.709ZM508.244 359.526C507.495 359.871 506.951 360.236 506.612 360.621C506.268 361.002 506.096 361.432 506.096 361.911C506.096 362.376 506.26 362.644 506.587 362.717C506.909 362.787 507.416 362.669 508.108 362.364L510.305 361.351C511.042 361.012 511.59 360.65 511.95 360.265C512.306 359.877 512.484 359.44 512.484 358.952C512.484 358.469 512.313 358.2 511.969 358.144C511.626 358.088 511.1 358.219 510.392 358.536L508.244 359.526Z" fill="#B02389"/>
<path d="M540.377 350.978L542.134 345.103L544.381 344.067V351.463L542.587 352.29V347.751L540.979 353.031L539.774 353.587L538.198 349.85V354.314L536.404 355.141V347.744L538.632 346.717L540.377 350.978ZM549.993 341.479L551.787 340.652V348.049L549.993 348.876V344.309L547.746 349.912L545.945 350.742V343.345L547.746 342.515V347.075L549.993 341.479ZM558.982 344.732L557.182 345.562V342.718L554.953 343.745V346.589L553.159 347.416V340.02L554.953 339.193V342.16L557.182 341.132V338.165L558.982 337.335V344.732ZM562.881 340.139L564.122 334.966L566.047 334.078L563.346 343.868L563.197 344.327C562.796 345.478 562.134 346.266 561.211 346.692C560.95 346.812 560.685 346.891 560.416 346.928V345.431L560.689 345.312C561.029 345.156 561.281 344.982 561.447 344.792C561.616 344.6 561.749 344.35 561.844 344.041L562.055 343.336L559.702 337.003L561.633 336.113L562.881 340.139ZM572.329 332.768L570.175 333.761V339.572L568.375 340.402V334.591L566.258 335.567V333.981L572.329 331.182V332.768Z" fill="#B02389"/>
<path d="M67.8942 261.353C68.2253 261.2 68.4943 260.976 68.7013 260.68C68.9082 260.384 69.0158 260.068 69.0241 259.731L70.7065 258.956C70.7023 259.459 70.5782 259.976 70.334 260.508C70.0898 261.035 69.7546 261.514 69.3283 261.942C68.9061 262.365 68.4385 262.694 67.9253 262.931C66.9651 263.374 66.2077 263.388 65.6531 262.974C65.0986 262.555 64.8213 261.753 64.8213 260.568V260.438C64.8213 259.299 65.0965 258.263 65.6469 257.33C66.1974 256.397 66.9527 255.709 67.9129 255.267C68.753 254.88 69.4255 254.834 69.9305 255.13C70.4395 255.419 70.6982 255.999 70.7065 256.871L69.0241 257.646C69.0158 257.267 68.9082 257.007 68.7013 256.865C68.4943 256.719 68.2212 256.724 67.8818 256.881C67.4638 257.073 67.1472 257.388 66.932 257.825C66.7209 258.254 66.6154 258.845 66.6154 259.597V259.802C66.6154 260.564 66.7209 261.062 66.932 261.297C67.1431 261.533 67.4638 261.551 67.8942 261.353ZM71.8239 259.404C72.2295 258.743 72.5047 258.147 72.6496 257.615C72.7944 257.084 72.8751 256.388 72.8917 255.528L72.9413 253.085L77.8829 250.807V256.611L78.8514 256.165V259.979L77.0573 260.806V258.584L73.0779 260.419V262.641L71.2466 263.485V259.67L71.8239 259.404ZM73.9408 258.428L76.095 257.435V253.265L74.6982 253.909L74.6858 254.804C74.6485 256.179 74.4002 257.387 73.9408 258.428ZM82.8555 256.048C81.8705 256.502 81.0676 256.54 80.4468 256.16C79.8302 255.779 79.5218 255.035 79.5218 253.928V253.736C79.5218 252.993 79.6522 252.27 79.9129 251.567C80.1737 250.859 80.542 250.238 81.018 249.704C81.4981 249.163 82.0444 248.752 82.6569 248.47C83.5757 248.046 84.2979 248.032 84.8235 248.428C85.3532 248.822 85.6181 249.604 85.6181 250.776V251.582L81.3408 253.554C81.3987 254.01 81.5725 254.318 81.8623 254.476C82.1561 254.632 82.5265 254.607 82.9735 254.401C83.6646 254.082 84.2047 253.558 84.5938 252.827L85.4753 253.507C85.2063 254.051 84.8421 254.547 84.3827 254.995C83.9233 255.44 83.4143 255.791 82.8555 256.048ZM82.6507 250.072C82.2947 250.236 82.005 250.502 81.7816 250.869C81.5622 251.235 81.4215 251.678 81.3594 252.199L83.855 251.048V250.891C83.8467 250.457 83.7391 250.17 83.5322 250.028C83.3253 249.882 83.0314 249.897 82.6507 250.072ZM92.4842 244.076V251.473L90.69 252.3V246.503L89.107 247.233L88.9953 249.567C88.9249 250.816 88.7076 251.803 88.3434 252.527C87.9792 253.251 87.437 253.786 86.7169 254.131L86.1085 254.412L86.0899 252.814L86.3134 252.69C86.6362 252.514 86.8721 252.196 87.0211 251.735C87.1701 251.275 87.2632 250.564 87.3005 249.603L87.4246 246.409L92.4842 244.076ZM93.5892 247.197C93.5892 246.463 93.7175 245.75 93.9741 245.057C94.2307 244.365 94.599 243.75 95.0791 243.215C95.5633 242.677 96.1241 242.261 96.7615 241.967C97.6678 241.55 98.4066 241.514 98.9777 241.862C99.553 242.207 99.8738 242.889 99.94 243.906L99.9524 244.407C99.9524 245.541 99.6648 246.585 99.0895 247.539C98.5142 248.488 97.7423 249.185 96.7739 249.632C95.8054 250.078 95.0315 250.093 94.4521 249.677C93.8768 249.258 93.5892 248.461 93.5892 247.285V247.197ZM95.3833 246.513C95.3833 247.215 95.5033 247.697 95.7434 247.96C95.9834 248.219 96.3269 248.245 96.7739 248.039C97.2085 247.839 97.5478 247.5 97.792 247.023C98.0362 246.541 98.1583 245.897 98.1583 245.09C98.1583 244.402 98.0362 243.925 97.792 243.659C97.5478 243.394 97.2043 243.363 96.7615 243.567C96.3228 243.769 95.9834 244.115 95.7434 244.604C95.5033 245.088 95.3833 245.725 95.3833 246.513ZM103.69 243.579L102.969 243.911V246.639L101.175 247.466V240.069L102.969 239.242V242.024L103.609 241.73L105.074 238.272L107.34 237.227L105.142 241.761L107.545 244.529L105.155 245.631L103.69 243.579Z" fill="#B02389"/>
<path d="M16.8814 448.507L17.9057 448.034V449.627L16.8814 450.099V452.253L15.0872 453.08V450.926L11.3811 452.635L11.3004 451.428L15.0686 443.135L16.8814 442.3V448.507ZM13.0883 450.255L15.0872 449.334V445.82L14.9693 446.1L13.0883 450.255ZM24.958 444.414C24.958 445.79 24.6993 446.962 24.182 447.93C23.6646 448.898 22.9073 449.611 21.9098 450.071C20.9248 450.525 20.1716 450.515 19.6501 450.04C19.1287 449.565 18.8617 448.662 18.8493 447.333V445.501C18.8493 444.111 19.11 442.936 19.6315 441.975C20.1571 441.013 20.9124 440.304 21.8974 439.85C22.8824 439.396 23.6357 439.407 24.1571 439.882C24.6786 440.352 24.9456 441.252 24.958 442.582V444.414ZM23.1639 443.231C23.1639 442.407 23.0604 441.855 22.8535 441.577C22.6507 441.292 22.332 441.25 21.8974 441.45C21.4753 441.645 21.1628 441.969 20.96 442.422C20.7614 442.869 20.6558 443.476 20.6434 444.243V446.663C20.6434 447.474 20.7427 448.032 20.9414 448.337C21.1442 448.635 21.467 448.683 21.9098 448.478C22.3485 448.276 22.6652 447.941 22.8597 447.473C23.0542 447.005 23.1556 446.38 23.1639 445.597V443.231Z" fill="#B02389"/>
<path d="M16.4406 387.091V388.718L16.2668 388.798C15.4556 389.186 14.8017 389.72 14.305 390.4C13.8125 391.078 13.5166 391.841 13.4173 392.689C13.8974 391.93 14.5037 391.382 15.2362 391.044C16.0226 390.681 16.6475 390.703 17.1111 391.109C17.5746 391.515 17.8064 392.224 17.8064 393.236C17.8064 393.883 17.6781 394.528 17.4215 395.17C17.169 395.811 16.8089 396.385 16.3413 396.892C15.8777 397.397 15.3521 397.785 14.7644 398.056C13.8125 398.495 13.0427 398.485 12.455 398.027C11.8715 397.567 11.5797 396.729 11.5797 395.512V394.801C11.5797 393.721 11.7639 392.683 12.1322 391.689C12.5047 390.688 13.0365 389.802 13.7277 389.032C14.423 388.256 15.228 387.655 16.1426 387.229L16.4406 387.091ZM14.6899 392.882C14.4002 393.015 14.1374 393.221 13.9015 393.498C13.6656 393.771 13.4918 394.07 13.38 394.395V394.996C13.38 395.657 13.498 396.12 13.7339 396.385C13.9698 396.645 14.3009 396.677 14.7272 396.481C15.1121 396.303 15.4225 395.994 15.6584 395.552C15.8984 395.105 16.0184 394.614 16.0184 394.081C16.0184 393.538 15.8984 393.156 15.6584 392.934C15.4183 392.712 15.0955 392.695 14.6899 392.882ZM24.958 389.105C24.958 390.481 24.6993 391.653 24.182 392.621C23.6646 393.589 22.9073 394.302 21.9098 394.762C20.9248 395.216 20.1716 395.206 19.6501 394.731C19.1287 394.256 18.8617 393.353 18.8493 392.024V390.192C18.8493 388.802 19.11 387.627 19.6315 386.666C20.1571 385.704 20.9124 384.996 21.8974 384.541C22.8824 384.087 23.6357 384.098 24.1571 384.573C24.6786 385.043 24.9456 385.944 24.958 387.273V389.105ZM23.1639 387.922C23.1639 387.098 23.0604 386.546 22.8535 386.268C22.6507 385.983 22.332 385.941 21.8974 386.141C21.4753 386.336 21.1628 386.66 20.96 387.113C20.7614 387.56 20.6558 388.167 20.6434 388.934V391.354C20.6434 392.165 20.7427 392.723 20.9414 393.028C21.1442 393.327 21.467 393.374 21.9098 393.17C22.3485 392.967 22.6652 392.632 22.8597 392.164C23.0542 391.696 23.1556 391.071 23.1639 390.288V387.922Z" fill="#B02389"/>
<path d="M17.4649 334.058C17.4649 334.541 17.3552 335.02 17.1359 335.495C16.9165 335.97 16.6144 336.408 16.2295 336.808C16.6682 336.838 17.0159 337 17.2725 337.291C17.5291 337.579 17.6574 337.998 17.6574 338.549C17.6574 339.434 17.3842 340.259 16.8379 341.026C16.2916 341.788 15.5487 342.386 14.6092 342.819C13.6697 343.252 12.9248 343.338 12.3743 343.077C11.8239 342.816 11.5487 342.245 11.5487 341.366C11.5487 340.814 11.677 340.274 11.9336 339.746C12.1902 339.217 12.5357 338.739 12.9703 338.311C12.5854 338.265 12.2833 338.106 12.0639 337.833C11.8487 337.559 11.7411 337.18 11.7411 336.697C11.7411 335.849 11.9977 335.056 12.5109 334.319C13.0241 333.576 13.7215 333.002 14.603 332.595C15.4804 332.191 16.1757 332.121 16.6889 332.386C17.2062 332.644 17.4649 333.201 17.4649 334.058ZM15.857 339.236C15.857 338.803 15.7432 338.509 15.5156 338.354C15.288 338.199 14.9817 338.211 14.5968 338.388C14.2161 338.564 13.9119 338.834 13.6842 339.199C13.4566 339.559 13.3428 339.957 13.3428 340.395C13.3428 340.819 13.4545 341.109 13.678 341.266C13.9015 341.423 14.2119 341.409 14.6092 341.226C14.9983 341.047 15.3025 340.781 15.5218 340.43C15.7453 340.076 15.857 339.678 15.857 339.236ZM15.6708 334.981C15.6708 334.594 15.5777 334.327 15.3914 334.18C15.2052 334.029 14.9424 334.032 14.603 334.188C14.2678 334.343 14.007 334.577 13.8208 334.89C13.6346 335.204 13.5414 335.562 13.5414 335.963C13.5414 336.359 13.6346 336.635 13.8208 336.791C14.007 336.946 14.2699 336.946 14.6092 336.79C14.9486 336.633 15.2093 336.392 15.3914 336.067C15.5777 335.739 15.6708 335.377 15.6708 334.981ZM24.958 333.796C24.958 335.172 24.6993 336.344 24.182 337.312C23.6646 338.28 22.9073 338.994 21.9098 339.453C20.9248 339.907 20.1716 339.897 19.6501 339.422C19.1287 338.947 18.8617 338.044 18.8493 336.715V334.883C18.8493 333.493 19.11 332.318 19.6315 331.357C20.1571 330.395 20.9124 329.687 21.8974 329.232C22.8824 328.778 23.6357 328.789 24.1571 329.264C24.6786 329.735 24.9456 330.635 24.958 331.964V333.796ZM23.1639 332.613C23.1639 331.789 23.0604 331.237 22.8535 330.959C22.6507 330.674 22.332 330.632 21.8974 330.832C21.4753 331.027 21.1628 331.351 20.96 331.804C20.7614 332.251 20.6558 332.858 20.6434 333.625V336.045C20.6434 336.856 20.7427 337.414 20.9414 337.719C21.1442 338.018 21.467 338.065 21.9098 337.861C22.3485 337.658 22.6652 337.323 22.8597 336.855C23.0542 336.387 23.1556 335.762 23.1639 334.979V332.613Z" fill="#B02389"/>
<path d="M8.63087 290.129L6.83676 290.956V283.341L4.69499 285.06V283.454L8.43842 280.251L8.63087 280.163V290.129ZM17.6573 281.853C17.6573 283.229 17.3987 284.401 16.8813 285.369C16.364 286.337 15.6066 287.05 14.6092 287.51C13.6242 287.964 12.8709 287.954 12.3495 287.479C11.828 287.003 11.5611 286.101 11.5486 284.772V282.94C11.5486 281.55 11.8094 280.374 12.3308 279.414C12.8565 278.452 13.6118 277.743 14.5968 277.289C15.5818 276.835 16.335 276.846 16.8565 277.321C17.378 277.791 17.6449 278.691 17.6573 280.021V281.853ZM15.8632 280.67C15.8632 279.845 15.7597 279.294 15.5528 279.015C15.35 278.731 15.0313 278.689 14.5968 278.889C14.1746 279.083 13.8622 279.408 13.6594 279.861C13.4607 280.308 13.3552 280.915 13.3428 281.682V284.102C13.3428 284.913 13.4421 285.471 13.6407 285.776C13.8435 286.074 14.1663 286.121 14.6092 285.917C15.0479 285.715 15.3645 285.38 15.559 284.912C15.7535 284.444 15.8549 283.819 15.8632 283.035V280.67ZM24.9579 278.487C24.9579 279.864 24.6993 281.036 24.1819 282.003C23.6646 282.971 22.9072 283.685 21.9098 284.144C20.9248 284.599 20.1716 284.588 19.6501 284.113C19.1286 283.638 18.8617 282.736 18.8493 281.406V279.574C18.8493 278.184 19.11 277.009 19.6315 276.048C20.1571 275.086 20.9124 274.378 21.8974 273.924C22.8824 273.47 23.6356 273.48 24.1571 273.955C24.6786 274.426 24.9455 275.326 24.9579 276.655V278.487ZM23.1638 277.305C23.1638 276.48 23.0604 275.928 22.8534 275.65C22.6506 275.365 22.332 275.323 21.8974 275.523C21.4752 275.718 21.1628 276.042 20.96 276.495C20.7613 276.942 20.6558 277.549 20.6434 278.316V280.736C20.6434 281.547 20.7427 282.105 20.9414 282.41C21.1442 282.709 21.467 282.756 21.9098 282.552C22.3485 282.349 22.6651 282.014 22.8596 281.546C23.0541 281.078 23.1555 280.453 23.1638 279.67V277.305Z" fill="#B02389"/>
<path d="M72.7084 563.047L91.1117 536.911L114.627 519.01L151.434 450.263L180.061 430.005L207.666 399.627L227.092 382.434L250.607 353.942L280.257 329.682L297.637 288.719L329.332 265.87L365.116 228.192L397.833 207.225L436.685 171.662L455.088 132.582L514.387 92.2999L536.88 70.1627" stroke="url(#paint0_linear)" stroke-width="5"/>
<path d="M75.5785 548.722L176.797 492.645L246.32 457.064L429.842 359.515L533.105 303.084" stroke="url(#paint1_linear)" stroke-width="5" stroke-linecap="round"/>
<path d="M568.941 258.792C568.941 274.587 559.559 292.123 546.945 301.675C546.313 302.153 545.804 302.822 545.417 303.422C545.017 304.041 544.648 304.743 544.311 305.449C543.722 306.68 543.131 308.128 542.574 309.496C542.498 309.683 542.422 309.868 542.348 310.051C541.7 311.635 541.102 313.059 540.523 314.152C540.235 314.695 539.995 315.073 539.806 315.315C539.7 315.452 539.638 315.51 539.615 315.528C539.493 315.572 539.105 315.595 538.418 315.036C537.759 314.501 537.079 313.646 536.347 312.674C536.242 312.535 536.137 312.394 536.03 312.251C535.417 311.431 534.773 310.57 534.134 309.906C533.755 309.513 533.347 309.156 532.913 308.908C532.487 308.665 531.963 308.483 531.342 308.558C519.223 310.032 510.321 301.201 510.321 285.816C510.321 267.083 523.5 245.937 539.631 238.5C555.762 231.064 568.941 240.059 568.941 258.792Z" fill="white" stroke="#FAE57D" stroke-width="3"/>
<g clip-path="url(#clip0)">
<path d="M547.854 278.398L542.604 278.431C542.031 278.426 541.639 278.002 541.639 277.296V276.892C543.208 274.959 544.415 272.688 545.078 270.398L545.199 270.342C546.617 269.689 547.763 267.882 547.763 266.302V261.427C547.763 258.569 546.617 256.441 544.626 255.577C543.178 254.934 541.307 255.056 539.406 255.932L537.687 256.725C534.549 258.172 531.713 261.227 530.024 264.931L528.696 267.863L529.239 268.016C529.994 268.207 530.416 268.953 530.416 269.962V274.333C530.416 275.913 531.562 276.662 532.98 276.009L533.101 275.953C533.795 277.617 534.972 278.789 536.54 279.276V279.68C536.54 280.386 536.178 281.158 535.575 281.705L530.325 286.512C527.309 289.282 525.317 293.495 525.317 297.16V297.731L552.922 285.005V284.434C552.922 280.769 550.931 278.392 547.854 278.398ZM543.66 282.214L541.609 284.875L542.997 279.629L543.298 279.624L543.66 282.214ZM534.972 283.463L535.273 283.189L536.661 287.156L534.549 286.415L534.972 283.463ZM536.691 287.31L537.898 290.788L537.807 290.83L535.696 289.45L536.691 287.31ZM536.208 282.321C536.269 282.26 536.359 282.151 536.42 282.089L539.105 284.281L541.79 279.613C541.85 279.653 541.941 279.645 542.001 279.651L539.225 290.176L538.954 290.301L536.208 282.321ZM541.548 285.071L542.544 286.293L540.432 289.62L540.342 289.662L541.548 285.071ZM541.669 265.716C540.915 266.063 540.251 266.84 539.919 267.666L538.32 268.403C537.958 267.897 537.325 267.719 536.571 268.066L533.493 269.485V266.661C534.911 266.074 536.299 265.804 537.626 265.831C539.225 265.867 540.915 265.492 542.665 264.685L544.746 263.726V264.297L541.669 265.716ZM545.47 269.074C545.651 268.15 545.772 267.22 545.772 266.312V265.64C546.376 265.597 546.798 266.041 546.798 266.781C546.768 267.635 546.195 268.606 545.47 269.074ZM530.084 266.921L530.899 265.133C532.377 261.863 534.911 259.148 537.687 257.868L539.437 257.062C541.096 256.297 542.725 256.185 544.022 256.73C545.772 257.503 546.798 259.35 546.798 261.872V264.495C546.496 264.398 546.164 264.35 545.772 264.429V262.11L542.665 263.542C541.066 264.279 539.527 264.619 538.049 264.594C536.45 264.558 534.76 264.933 532.98 265.754L532.467 265.99V270.597C532.075 270.878 531.743 271.199 531.442 271.607V269.489C531.442 268.245 530.959 267.291 530.084 266.921ZM531.442 273.827C531.442 273.087 531.864 272.253 532.467 271.74V272.412C532.467 273.32 532.588 274.139 532.769 274.896C532.015 275.143 531.442 274.701 531.442 273.827ZM533.493 271.973V271.771C533.493 273.015 534.398 273.64 535.545 273.112L536.571 272.639C537.687 272.124 538.622 270.684 538.622 269.407L539.648 268.934C539.648 270.178 540.553 270.803 541.699 270.275L542.725 269.802C543.841 269.287 544.777 267.847 544.777 266.57V266.771C544.777 270.772 542.514 275.346 539.165 278.235C535.756 278.461 533.493 275.974 533.493 271.973ZM538.954 279.475L539.105 279.473L539.256 279.336C539.738 278.945 540.191 278.501 540.643 278.024C540.674 278.481 540.824 278.848 541.066 279.14L539.105 282.532L537.144 280.948C537.385 280.467 537.506 279.941 537.566 279.442C538.019 279.503 538.471 279.496 538.954 279.475ZM530.748 287.326L533.855 284.482L533.463 287.386L535.364 288.09L534.368 290.23L536.359 291.531L531.442 293.798V290.369L530.416 290.842V294.271L526.343 296.149C526.554 293.025 528.244 289.658 530.748 287.326ZM547.793 286.226V282.831L546.768 283.303V286.733L541.88 288.986L543.871 285.849L542.876 284.66L544.777 282.204L544.354 279.675L547.462 279.655C549.996 279.63 551.685 281.44 551.866 284.349L547.793 286.226Z" fill="#010101"/>
</g>
<path d="M575.638 35.9316C575.638 51.7271 566.256 69.263 553.642 78.8147C553.01 79.2931 552.501 79.9616 552.114 80.5618C551.714 81.181 551.345 81.8831 551.008 82.5884C550.418 83.8199 549.828 85.2681 549.271 86.636C549.195 86.8226 549.119 87.0078 549.044 87.1907C548.397 88.7746 547.798 90.1988 547.22 91.2916C546.932 91.8348 546.692 92.2132 546.503 92.4552C546.396 92.5921 546.334 92.6493 546.312 92.668C546.19 92.7118 545.802 92.7347 545.115 92.1761C544.456 91.6403 543.776 90.786 543.044 89.8142C542.939 89.6751 542.833 89.5333 542.726 89.3903C542.114 88.571 541.47 87.7094 540.831 87.0462C540.452 86.6527 540.044 86.2959 539.61 86.0477C539.184 85.8046 538.66 85.6226 538.039 85.6981C525.919 87.1716 517.018 78.3404 517.018 62.9557C517.018 44.2233 530.197 23.0767 546.328 15.6401C562.459 8.20351 575.638 17.1991 575.638 35.9316Z" fill="white" stroke="#ED7E40" stroke-width="3"/>
<path d="M532.924 50.1225C531.87 50.6083 530.992 51.9834 530.992 53.2367V56.7539C530.992 57.9667 531.835 58.5888 532.924 58.0868C533.275 57.9249 533.556 57.4719 533.556 57.0677V50.5588C533.556 50.1545 533.275 49.9606 532.924 50.1225Z" fill="#212121"/>
<path d="M561.163 37.1038C560.812 37.2657 560.531 37.7187 560.531 38.123V44.551C560.531 44.9553 560.812 45.1492 561.163 44.9872C562.217 44.5015 563.095 43.1264 563.095 41.8731V38.3559C563.06 37.1997 562.217 36.618 561.163 37.1038Z" fill="#212121"/>
<path d="M558.424 52.8804C558.073 52.4763 557.721 52.1127 557.335 51.8461C558.845 49.4518 559.794 46.6294 559.794 44.0016V39.5545C559.794 34.4202 556.176 31.9239 551.715 33.9804L547.887 35.7454V33.2793C549.151 32.2516 550.099 30.4803 550.099 28.8632C550.099 26.9227 548.73 25.9775 547.044 26.7547C545.358 27.532 543.988 29.7401 543.988 31.6807C543.988 33.3382 544.971 34.2594 546.306 34.0079V36.4336L542.513 38.1824C538.052 40.2388 534.434 46.0707 534.434 51.2051V55.6521C534.434 58.3204 535.417 60.2522 536.963 61.2377C536.577 61.901 536.225 62.548 535.909 63.2193C534.82 65.5001 534.083 67.8211 533.872 69.6567C533.626 71.7106 534.048 73.0121 535.031 73.3673C535.488 73.5206 536.015 73.4799 536.612 73.2046C537.595 72.7512 538.719 71.7479 539.878 70.2433C541.389 72.7812 544.058 73.6933 547.044 72.3169C547.325 72.1874 547.641 72.0012 547.922 71.8313C550.591 70.2368 552.909 67.0658 554.279 63.4427C555.473 63.9432 556.668 63.9183 557.721 63.4325C558.318 63.1572 558.845 62.7526 559.302 62.1378C560.285 60.8759 560.707 59.1857 560.461 57.3586C560.215 55.8144 559.513 54.1572 558.424 52.8804ZM551.715 35.5975C552.382 35.2898 553.015 35.1197 553.612 35.0465L552.488 40.4565L541.67 45.4437L540.546 41.1106C541.178 40.6169 541.81 40.2042 542.477 39.8965L551.715 35.6379V35.5975ZM535.839 55.0449V50.5978C535.839 47.7274 537.209 44.5894 539.246 42.3161L540.229 46.1076C538.614 47.0951 537.349 49.2547 537.349 51.1952V56.2083C537.349 56.2083 537.349 57.4615 538.087 57.4853C543.777 58.2985 550.556 55.2138 556.281 49.1785C557.054 48.4584 557.054 47.286 557.054 47.286V42.1517C557.054 40.1303 555.684 39.1042 553.928 39.7926L554.911 35.0538C556.984 35.4326 558.389 37.2914 558.389 40.2022V44.6493C558.389 48.9346 555.368 53.7636 551.68 55.4638L542.548 59.6738C538.825 61.3902 535.839 59.2898 535.839 55.0449ZM550.135 60.5425C548.168 62.3791 545.955 63.3992 543.988 63.4166C543.918 62.6 543.882 61.6863 543.847 60.7322L550.24 57.7852C550.24 58.715 550.205 59.6611 550.135 60.5425ZM535.804 71.7173C535.277 71.5559 535.066 70.6424 535.242 69.2677C535.277 69.009 535.312 68.7502 535.382 68.4348C536.647 68.4179 537.63 69.1369 538.122 70.4061C537.174 71.4092 536.331 71.8787 535.804 71.7173ZM538.719 69.7265C538.157 68.328 536.998 67.5687 535.593 67.5696C535.909 66.3323 536.401 65.014 537.068 63.6552C537.384 62.984 537.701 62.3935 538.052 61.7869C538.263 61.8514 538.508 61.8998 538.719 61.9644C538.579 62.8781 538.508 63.7595 538.508 64.6085C538.508 66.3064 538.789 67.8344 539.281 69.0632C539.07 69.2816 538.895 69.5243 538.719 69.7265ZM539.913 63.9203C539.913 63.2735 539.949 62.6509 540.054 61.9555C540.827 61.8822 541.634 61.6715 542.442 61.2991C542.513 66.8862 543.566 69.7559 544.515 71.1784C541.845 71.0345 539.913 68.2461 539.913 63.9203ZM546.727 70.8455C546.201 70.5629 544.831 69.3347 544.163 65.1144C545.112 65.0007 546.06 64.7252 547.008 64.288C547.992 63.8346 548.975 63.2195 549.924 62.4184C549.292 67.2378 547.887 69.7452 547.36 70.5541C547.254 70.6027 547.114 70.6674 547.008 70.716C546.938 70.7484 546.833 70.797 546.727 70.8455ZM549.608 68.8305C550.591 66.477 551.61 62.6923 551.68 57.0809C552.488 56.7085 553.296 56.1743 554.033 55.5917C554.104 56.1657 554.139 56.756 554.139 57.3624C554.174 61.6316 552.277 66.1445 549.608 68.8305ZM555.368 54.3296C555.649 54.0383 555.965 53.6904 556.211 53.3749C556.562 53.6577 556.913 53.9809 557.23 54.3608C557.897 55.1042 558.389 56.0095 558.705 56.9553C557.265 58.2661 556.141 60.0779 555.579 61.9946C555.333 61.9462 555.087 61.817 554.841 61.7282C555.298 60.1027 555.544 58.4127 555.544 56.7551C555.579 55.8899 555.509 55.1138 555.368 54.3296ZM558.494 61.257C557.967 61.9042 557.159 62.1957 556.246 62.0912C556.703 60.4253 557.686 58.7995 558.951 57.6101C559.021 57.8203 559.056 58.0467 559.091 58.2731C559.197 59.5182 558.986 60.626 558.494 61.257Z" fill="#212121"/>
<path d="M541.88 52.462C542.714 52.0774 543.391 50.9874 543.391 50.0273C543.391 49.0672 542.714 48.6006 541.88 48.9852C541.046 49.3697 540.37 50.4598 540.37 51.4199C540.37 52.3799 541.046 52.8465 541.88 52.462Z" fill="#F4FF71"/>
<path d="M547.043 32.1317C547.878 31.7472 548.554 30.6571 548.554 29.697C548.554 28.737 547.878 28.2704 547.043 28.6549C546.209 29.0395 545.533 30.1295 545.533 31.0896C545.533 32.0497 546.209 32.5163 547.043 32.1317Z" fill="#F4FF71"/>
<path d="M551.891 47.8472C552.725 47.4626 553.401 46.3726 553.401 45.4125C553.401 44.4524 552.725 43.9858 551.891 44.3704C551.056 44.7549 550.38 45.845 550.38 46.8051C550.38 47.7651 551.056 48.2317 551.891 47.8472Z" fill="#F4FF71"/>
</g>
<defs>
<filter id="filter0_f" x="0.694993" y="7.4035" width="580.305" height="564.379" filterUnits="userSpaceOnUse" color-interpolation-filters="sRGB">
<feFlood flood-opacity="0" result="BackgroundImageFix"/>
<feBlend mode="normal" in="SourceGraphic" in2="BackgroundImageFix" result="shape"/>
<feGaussianBlur stdDeviation="2" result="effect1_foregroundBlur"/>
</filter>
<linearGradient id="paint0_linear" x1="304.794" y1="177.156" x2="410.832" y2="407.17" gradientUnits="userSpaceOnUse">
<stop stop-color="#ED7E40" stop-opacity="0.54"/>
<stop offset="1" stop-color="#ED7E40" stop-opacity="0.09"/>
</linearGradient>
<linearGradient id="paint1_linear" x1="304.342" y1="408.545" x2="317.54" y2="437.176" gradientUnits="userSpaceOnUse">
<stop stop-color="#FAE57D" stop-opacity="0.6"/>
<stop offset="1" stop-color="#FAE57D" stop-opacity="0"/>
<stop offset="1" stop-color="#FAE57D" stop-opacity="0.54"/>
</linearGradient>
<clipPath id="clip0">
<rect width="30.3971" height="35.3036" transform="matrix(0.908143 -0.41866 0 1 525.317 262.428)" fill="white"/>
</clipPath>
</defs>
</svg>
