<svg width="88" height="36" viewBox="0 0 88 36" fill="none" xmlns="http://www.w3.org/2000/svg">
<g clip-path="url(#clip0)">
<path fill-rule="evenodd" clip-rule="evenodd" d="M15.9987 6.66756L9.93967 23.057L9.93342 23.076C9.78916 23.6127 9.54872 23.6742 9.37561 23.6742C9.30348 23.6742 9.10391 23.6127 8.80721 23.0424L2.37792 6.66756H0L7.13377 24.0802C7.1756 24.3259 7.2776 24.5578 7.43093 24.7559C7.58427 24.954 7.78433 25.1123 8.01377 25.217C8.42662 25.4816 8.90908 25.6212 9.40157 25.6186C9.89406 25.6161 10.375 25.4716 10.785 25.2028C11.1866 24.934 11.4869 24.5422 11.6396 24.0882L18.3862 6.66756H15.9987ZM40.5156 8.64851C39.7124 7.84129 38.7524 7.20172 37.6928 6.76795C36.6332 6.33418 35.4958 6.11509 34.3484 6.12377C31.3381 6.12377 28.9457 7.24167 27.2382 9.4443C25.7776 11.2367 24.9805 13.4658 24.9781 15.7642V34.4681H27.3863V22.6127C28.0945 23.7622 29.1029 24.7034 30.3061 25.3383L30.3254 25.3478C31.543 25.9044 32.8736 26.1798 34.2157 26.153C37.1855 26.153 39.5755 25.0835 41.323 22.967C42.8531 20.9225 43.6483 18.4342 43.5831 15.8949C43.6298 14.5409 43.38 13.1929 42.8506 11.9425C42.3212 10.6921 41.5246 9.5686 40.5151 8.64851H40.5156ZM27.3877 16.1446C27.3877 13.9182 28.0191 12.159 29.317 10.7659C29.9396 10.0616 30.7151 9.50431 31.5861 9.13533C32.4571 8.76634 33.4011 8.59511 34.3484 8.6343C35.2728 8.59484 36.194 8.76503 37.0411 9.13172C37.8882 9.49842 38.6384 10.0518 39.2341 10.7493L39.2485 10.7654C40.5468 12.159 41.1768 13.9187 41.1768 16.1446C41.2009 18.1657 40.4692 20.1249 39.121 21.6488C38.1963 22.634 35.8848 23.4076 34.168 23.7737C32.7205 23.7687 31.3118 23.3117 30.1446 22.4682C29.0456 21.5999 28.2146 20.4466 27.745 19.1382L27.3858 18.1516V16.145L27.3877 16.1446ZM64.7132 6.28719V18.5722C64.7293 19.2517 64.5905 19.9261 64.3068 20.5457C64.0232 21.1653 63.602 21.7143 63.0744 22.1523C61.9926 23.0918 60.5891 23.5919 59.1475 23.5516C57.8244 23.6193 56.5216 23.2094 55.4833 22.3986L55.4689 22.3858C54.3782 21.5237 53.8483 20.3158 53.8483 18.6911V6.28719H51.4358V19.2027C51.4248 20.1676 51.6419 21.1219 52.0698 21.99C52.4977 22.8582 53.1247 23.6164 53.9012 24.2048C55.463 25.3547 57.366 25.9657 59.3158 25.943C61.2656 25.9203 63.1534 25.2652 64.6872 24.0792C65.4567 23.4587 66.075 22.676 66.4967 21.7888C66.9184 20.9016 67.1327 19.9326 67.1238 18.953V6.28672H64.7113L64.7132 6.28719ZM86.2131 21.3916L85.8717 21.8141C85.3885 22.3945 84.7507 22.8308 84.0299 23.0741L83.9722 23.0978C83.3181 23.4139 82.5963 23.5699 81.8679 23.5525C80.7601 23.5617 79.6831 23.1936 78.8192 22.5104C78.4132 22.2201 78.0875 21.8341 77.872 21.3879C77.6564 20.9416 77.5578 20.4493 77.5852 19.9558V8.92372H84.6089V6.66282H77.5852V-1.53191H75.1741V20.0742C75.1574 20.8948 75.3213 21.7093 75.6545 22.4615C75.9877 23.2138 76.4823 23.8861 77.1043 24.4321L77.1226 24.4473C78.4575 25.5262 80.1418 26.0961 81.8679 26.0531C82.8964 26.0254 83.9093 25.7991 84.8493 25.3871C85.8234 24.9643 86.7504 24.4431 87.6153 23.832L88 23.5634L86.2131 21.3916Z" fill="#FF7253"/>
</g>
<defs>
<clipPath id="clip0">
<rect width="88" height="36" fill="white"/>
</clipPath>
</defs>
</svg>
