<svg width="1440" height="900" viewBox="0 0 1440 900" fill="none" xmlns="http://www.w3.org/2000/svg">
<g opacity="0.7">
<path fill-rule="evenodd" clip-rule="evenodd" d="M0 -2.8767H1440V-4H0V-2.8767ZM0 10.6029H1440V9.4796H0V10.6029ZM1440 24.0825H0V22.9592H1440V24.0825ZM0 37.5621H1440V36.4388H0V37.5621ZM1440 51.0417H0V49.9184H1440V51.0417ZM0 64.5213H1440V63.398H0V64.5213ZM1440 78.0009H0V76.8776H1440V78.0009ZM0 91.4806H1440V90.3573H0V91.4806ZM1440 104.96H0V103.837H1440V104.96ZM0 118.44H1440V117.316H0V118.44ZM1440 131.919H0V130.796H1440V131.919ZM0 145.399H1440V144.276H0V145.399ZM1440 158.879H0V157.755H1440V158.879ZM0 172.358H1440V171.235H0V172.358ZM1440 185.838H0V184.714H1440V185.838ZM0 199.317H1440V198.194H0V199.317ZM1440 212.797H0V211.674H1440V212.797ZM0 226.277H1440V225.153H0V226.277ZM1440 239.756H0V238.633H1440V239.756ZM0 253.236H1440V252.113H0V253.236ZM1440 266.715H0V265.592H1440V266.715ZM0 280.195H1440V279.072H0V280.195ZM1440 293.675H0V292.551H1440V293.675ZM0 307.154H1440V306.031H0V307.154ZM1440 320.634H0V319.511H1440V320.634ZM0 334.113H1440V332.99H0V334.113ZM1440 347.593H0V346.47H1440V347.593ZM0 361.073H1440V359.949H0V361.073ZM1440 374.552H0V373.429H1440V374.552ZM0 388.032H1440V386.909H0V388.032ZM1440 401.511H0V400.388H1440V401.511ZM0 414.991H1440V413.868H0V414.991ZM1440 428.471H0V427.347H1440V428.471ZM0 441.95H1440V440.827H0V441.95ZM1440 455.43H0V454.307H1440V455.43ZM0 468.91H1440V467.786H0V468.91ZM1440 482.389H0V481.266H1440V482.389ZM0 495.869H1440V494.745H0V495.869ZM1440 509.348H0V508.225H1440V509.348ZM0 522.828H1440V521.705H0V522.828ZM1440 536.308H0V535.184H1440V536.308ZM0 549.787H1440V548.664H0V549.787ZM1440 563.267H0V562.143H1440V563.267ZM0 576.746H1440V575.623H0V576.746ZM1440 590.226H0V589.103H1440V590.226ZM0 603.706H1440V602.582H0V603.706ZM1440 617.185H0V616.062H1440V617.185ZM0 630.665H1440V629.542H0V630.665ZM1440 644.144H0V643.021H1440V644.144ZM0 657.624H1440V656.501H0V657.624ZM1440 671.104H0V669.98H1440V671.104ZM0 684.583H1440V683.46H0V684.583ZM1440 698.063H0V696.94H1440V698.063ZM0 711.542H1440V710.419H0V711.542ZM1440 725.022H0V723.899H1440V725.022ZM0 738.502H1440V737.378H0V738.502ZM1440 751.981H0V750.858H1440V751.981ZM0 765.461H1440V764.338H0V765.461ZM1440 778.94H0V777.817H1440V778.94ZM0 792.42H1440V791.297H0V792.42ZM1440 805.9H0V804.776H1440V805.9ZM0 819.379H1440V818.256H0V819.379ZM1440 832.859H0V831.736H1440V832.859ZM0 846.339H1440V845.215H0V846.339ZM1440 859.818H0V858.695H1440V859.818ZM0 873.298H1440V872.174H0V873.298ZM1440 886.777H0V885.654H1440V886.777ZM0 900.257H1440V899.134H0V900.257Z" fill="#1D1324"/>
<path fill-rule="evenodd" clip-rule="evenodd" d="M15.134 831.228V27H16.0242V831.228H15.134ZM65.8773 841V36.7719H66.7675V841H65.8773ZM110.389 36.7719V841H111.279V36.7719H110.389ZM154.901 841V36.7719H155.791V841H154.901ZM199.412 36.7719V841H200.303V36.7719H199.412ZM243.924 841V36.7719H244.814V841H243.924ZM288.436 36.7719V841H289.326V36.7719H288.436ZM332.947 841V36.7719H333.838V841H332.947ZM377.459 36.7719V841H378.349V36.7719H377.459ZM421.971 841V36.7719H422.861V841H421.971ZM466.482 36.7719V841H467.373V36.7719H466.482ZM510.994 841V36.7719H511.884V841H510.994ZM555.506 36.7719V841H556.396V36.7719H555.506ZM600.018 841V36.7719H600.908V841H600.018ZM644.529 36.7719V841H645.419V36.7719H644.529ZM689.041 841V36.7719H689.931V841H689.041ZM733.552 36.7719V841H734.443V36.7719H733.552ZM778.064 841V36.7719H778.954V841H778.064ZM822.576 36.7719V841H823.466V36.7719H822.576ZM867.088 841V36.7719H867.978V841H867.088ZM911.599 36.7719V841H912.49V36.7719H911.599ZM956.111 841V36.7719H957.001V841H956.111ZM1000.62 36.7719V841H1001.51V36.7719H1000.62ZM1045.13 841V36.7719H1046.02V841H1045.13ZM1089.65 36.7719V841H1090.54V36.7719H1089.65ZM1134.16 841V36.7719H1135.05V841H1134.16ZM1178.67 36.7719V841H1179.56V36.7719H1178.67ZM1223.18 841V36.7719H1224.07V841H1223.18ZM1267.69 36.7719V841H1268.58V36.7719H1267.69Z" fill="#1D1324"/>
<path fill-rule="evenodd" clip-rule="evenodd" d="M15.134 48H16.0242V49H15.134V48ZM65.8773 48H66.7676V49H65.8773V48ZM111.279 48H110.389V49H111.279V48ZM154.901 48H155.791V49H154.901V48ZM200.303 48H199.412V49H200.303V48ZM243.924 48H244.814V49H243.924V48ZM289.326 48H288.436V49H289.326V48ZM332.947 48H333.838V49H332.947V48ZM378.349 48H377.459V49H378.349V48ZM421.971 48H422.861V49H421.971V48ZM467.373 48H466.482V49H467.373V48ZM510.994 48H511.884V49H510.994V48ZM556.396 48H555.506V49H556.396V48ZM600.018 48H600.908V49H600.018V48ZM645.419 48H644.529V49H645.419V48ZM689.041 48H689.931V49H689.041V48ZM734.443 48H733.553V49H734.443V48ZM778.064 48H778.955V49H778.064V48ZM823.466 48H822.576V49H823.466V48ZM867.088 48H867.978V49H867.088V48ZM912.49 48H911.599V49H912.49V48ZM956.111 48H957.001V49H956.111V48ZM1001.51 48H1000.62V49H1001.51V48ZM1045.13 48H1046.02V49H1045.13V48ZM1090.54 48H1089.65V49H1090.54V48ZM1134.16 48H1135.05V49H1134.16V48ZM1179.56 48H1178.67V49H1179.56V48ZM1223.18 48H1224.07V49H1223.18V48ZM1268.58 48H1267.69V49H1268.58V48ZM1312.2 48H1313.09V49H1312.2V48ZM15.134 108H16.0242V109H15.134V108ZM65.8773 108H66.7676V109H65.8773V108ZM111.279 108H110.389V109H111.279V108ZM154.901 108H155.791V109H154.901V108ZM200.303 108H199.412V109H200.303V108ZM243.924 108H244.814V109H243.924V108ZM289.326 108H288.436V109H289.326V108ZM332.947 108H333.838V109H332.947V108ZM378.349 108H377.459V109H378.349V108ZM421.971 108H422.861V109H421.971V108ZM467.373 108H466.482V109H467.373V108ZM510.994 108H511.884V109H510.994V108ZM556.396 108H555.506V109H556.396V108ZM600.018 108H600.908V109H600.018V108ZM645.419 108H644.529V109H645.419V108ZM689.041 108H689.931V109H689.041V108ZM734.443 108H733.553V109H734.443V108ZM778.064 108H778.955V109H778.064V108ZM823.466 108H822.576V109H823.466V108ZM867.088 108H867.978V109H867.088V108ZM912.49 108H911.599V109H912.49V108ZM956.111 108H957.001V109H956.111V108ZM1001.51 108H1000.62V109H1001.51V108ZM1045.13 108H1046.02V109H1045.13V108ZM1090.54 108H1089.65V109H1090.54V108ZM1134.16 108H1135.05V109H1134.16V108ZM1179.56 108H1178.67V109H1179.56V108ZM1223.18 108H1224.07V109H1223.18V108ZM1268.58 108H1267.69V109H1268.58V108ZM1312.2 108H1313.09V109H1312.2V108ZM16.0242 168H15.134V169H16.0242V168ZM66.7676 168H65.8773V169H66.7676V168ZM110.389 168H111.279V169H110.389V168ZM155.791 168H154.901V169H155.791V168ZM199.412 168H200.303V169H199.412V168ZM244.814 168H243.924V169H244.814V168ZM288.436 168H289.326V169H288.436V168ZM333.838 168H332.947V169H333.838V168ZM377.459 168H378.349V169H377.459V168ZM422.861 168H421.971V169H422.861V168ZM466.482 168H467.373V169H466.482V168ZM511.884 168H510.994V169H511.884V168ZM555.506 168H556.396V169H555.506V168ZM600.908 168H600.018V169H600.908V168ZM644.529 168H645.419V169H644.529V168ZM689.931 168H689.041V169H689.931V168ZM733.553 168H734.443V169H733.553V168ZM778.955 168H778.064V169H778.955V168ZM822.576 168H823.466V169H822.576V168ZM867.978 168H867.088V169H867.978V168ZM911.599 168H912.49V169H911.599V168ZM957.001 168H956.111V169H957.001V168ZM1000.62 168H1001.51V169H1000.62V168ZM1046.02 168H1045.13V169H1046.02V168ZM1089.65 168H1090.54V169H1089.65V168ZM1135.05 168H1134.16V169H1135.05V168ZM1178.67 168H1179.56V169H1178.67V168ZM1224.07 168H1223.18V169H1224.07V168ZM1267.69 168H1268.58V169H1267.69V168ZM1313.09 168H1312.2V169H1313.09V168ZM15.134 228H16.0242V229H15.134V228ZM65.8773 228H66.7676V229H65.8773V228ZM111.279 228H110.389V229H111.279V228ZM154.901 228H155.791V229H154.901V228ZM200.303 228H199.412V229H200.303V228ZM243.924 228H244.814V229H243.924V228ZM289.326 228H288.436V229H289.326V228ZM332.947 228H333.838V229H332.947V228ZM378.349 228H377.459V229H378.349V228ZM421.971 228H422.861V229H421.971V228ZM467.373 228H466.482V229H467.373V228ZM510.994 228H511.884V229H510.994V228ZM556.396 228H555.506V229H556.396V228ZM600.018 228H600.908V229H600.018V228ZM645.419 228H644.529V229H645.419V228ZM689.041 228H689.931V229H689.041V228ZM734.443 228H733.553V229H734.443V228ZM778.064 228H778.955V229H778.064V228ZM823.466 228H822.576V229H823.466V228ZM867.088 228H867.978V229H867.088V228ZM912.49 228H911.599V229H912.49V228ZM956.111 228H957.001V229H956.111V228ZM1001.51 228H1000.62V229H1001.51V228ZM1045.13 228H1046.02V229H1045.13V228ZM1090.54 228H1089.65V229H1090.54V228ZM1134.16 228H1135.05V229H1134.16V228ZM1179.56 228H1178.67V229H1179.56V228ZM1223.18 228H1224.07V229H1223.18V228ZM1268.58 228H1267.69V229H1268.58V228ZM1312.2 228H1313.09V229H1312.2V228ZM16.0242 288H15.134V289H16.0242V288ZM66.7676 288H65.8773V289H66.7676V288ZM110.389 288H111.279V289H110.389V288ZM155.791 288H154.901V289H155.791V288ZM199.412 288H200.303V289H199.412V288ZM244.814 288H243.924V289H244.814V288ZM288.436 288H289.326V289H288.436V288ZM333.838 288H332.947V289H333.838V288ZM377.459 288H378.349V289H377.459V288ZM422.861 288H421.971V289H422.861V288ZM466.482 288H467.373V289H466.482V288ZM511.884 288H510.994V289H511.884V288ZM555.506 288H556.396V289H555.506V288ZM600.908 288H600.018V289H600.908V288ZM644.529 288H645.419V289H644.529V288ZM689.931 288H689.041V289H689.931V288ZM733.553 288H734.443V289H733.553V288ZM778.955 288H778.064V289H778.955V288ZM822.576 288H823.466V289H822.576V288ZM867.978 288H867.088V289H867.978V288ZM911.599 288H912.49V289H911.599V288ZM957.001 288H956.111V289H957.001V288ZM1000.62 288H1001.51V289H1000.62V288ZM1046.02 288H1045.13V289H1046.02V288ZM1089.65 288H1090.54V289H1089.65V288ZM1135.05 288H1134.16V289H1135.05V288ZM1178.67 288H1179.56V289H1178.67V288ZM1224.07 288H1223.18V289H1224.07V288ZM1267.69 288H1268.58V289H1267.69V288ZM1313.09 288H1312.2V289H1313.09V288ZM15.134 348H16.0242V349H15.134V348ZM65.8773 348H66.7676V349H65.8773V348ZM111.279 348H110.389V349H111.279V348ZM154.901 348H155.791V349H154.901V348ZM200.303 348H199.412V349H200.303V348ZM243.924 348H244.814V349H243.924V348ZM289.326 348H288.436V349H289.326V348ZM332.947 348H333.838V349H332.947V348ZM378.349 348H377.459V349H378.349V348ZM421.971 348H422.861V349H421.971V348ZM467.373 348H466.482V349H467.373V348ZM510.994 348H511.884V349H510.994V348ZM556.396 348H555.506V349H556.396V348ZM600.018 348H600.908V349H600.018V348ZM645.419 348H644.529V349H645.419V348ZM689.041 348H689.931V349H689.041V348ZM734.443 348H733.553V349H734.443V348ZM778.064 348H778.955V349H778.064V348ZM823.466 348H822.576V349H823.466V348ZM867.088 348H867.978V349H867.088V348ZM912.49 348H911.599V349H912.49V348ZM956.111 348H957.001V349H956.111V348ZM1001.51 348H1000.62V349H1001.51V348ZM1045.13 348H1046.02V349H1045.13V348ZM1090.54 348H1089.65V349H1090.54V348ZM1134.16 348H1135.05V349H1134.16V348ZM1179.56 348H1178.67V349H1179.56V348ZM1223.18 348H1224.07V349H1223.18V348ZM1268.58 348H1267.69V349H1268.58V348ZM1312.2 348H1313.09V349H1312.2V348ZM16.0242 408H15.134V409H16.0242V408ZM66.7676 408H65.8773V409H66.7676V408ZM110.389 408H111.279V409H110.389V408ZM155.791 408H154.901V409H155.791V408ZM199.412 408H200.303V409H199.412V408ZM244.814 408H243.924V409H244.814V408ZM288.436 408H289.326V409H288.436V408ZM333.838 408H332.947V409H333.838V408ZM377.459 408H378.349V409H377.459V408ZM422.861 408H421.971V409H422.861V408ZM466.482 408H467.373V409H466.482V408ZM511.884 408H510.994V409H511.884V408ZM555.506 408H556.396V409H555.506V408ZM600.908 408H600.018V409H600.908V408ZM644.529 408H645.419V409H644.529V408ZM689.931 408H689.041V409H689.931V408ZM733.553 408H734.443V409H733.553V408ZM778.955 408H778.064V409H778.955V408ZM822.576 408H823.466V409H822.576V408ZM867.978 408H867.088V409H867.978V408ZM911.599 408H912.49V409H911.599V408ZM957.001 408H956.111V409H957.001V408ZM1000.62 408H1001.51V409H1000.62V408ZM1046.02 408H1045.13V409H1046.02V408ZM1089.65 408H1090.54V409H1089.65V408ZM1135.05 408H1134.16V409H1135.05V408ZM1178.67 408H1179.56V409H1178.67V408ZM1224.07 408H1223.18V409H1224.07V408ZM1267.69 408H1268.58V409H1267.69V408ZM1313.09 408H1312.2V409H1313.09V408ZM15.134 468H16.0242V469H15.134V468ZM65.8773 468H66.7676V469H65.8773V468ZM111.279 468H110.389V469H111.279V468ZM154.901 468H155.791V469H154.901V468ZM200.303 468H199.412V469H200.303V468ZM243.924 468H244.814V469H243.924V468ZM289.326 468H288.436V469H289.326V468ZM332.947 468H333.838V469H332.947V468ZM378.349 468H377.459V469H378.349V468ZM421.971 468H422.861V469H421.971V468ZM467.373 468H466.482V469H467.373V468ZM510.994 468H511.884V469H510.994V468ZM556.396 468H555.506V469H556.396V468ZM600.018 468H600.908V469H600.018V468ZM645.419 468H644.529V469H645.419V468ZM689.041 468H689.931V469H689.041V468ZM734.443 468H733.553V469H734.443V468ZM778.064 468H778.955V469H778.064V468ZM823.466 468H822.576V469H823.466V468ZM867.088 468H867.978V469H867.088V468ZM912.49 468H911.599V469H912.49V468ZM956.111 468H957.001V469H956.111V468ZM1001.51 468H1000.62V469H1001.51V468ZM1045.13 468H1046.02V469H1045.13V468ZM1090.54 468H1089.65V469H1090.54V468ZM1134.16 468H1135.05V469H1134.16V468ZM1179.56 468H1178.67V469H1179.56V468ZM1223.18 468H1224.07V469H1223.18V468ZM1268.58 468H1267.69V469H1268.58V468ZM1312.2 468H1313.09V469H1312.2V468ZM16.0242 528H15.134V529H16.0242V528ZM66.7676 528H65.8773V529H66.7676V528ZM110.389 528H111.279V529H110.389V528ZM155.791 528H154.901V529H155.791V528ZM199.412 528H200.303V529H199.412V528ZM244.814 528H243.924V529H244.814V528ZM288.436 528H289.326V529H288.436V528ZM333.838 528H332.947V529H333.838V528ZM377.459 528H378.349V529H377.459V528ZM422.861 528H421.971V529H422.861V528ZM466.482 528H467.373V529H466.482V528ZM511.884 528H510.994V529H511.884V528ZM555.506 528H556.396V529H555.506V528ZM600.908 528H600.018V529H600.908V528ZM644.529 528H645.419V529H644.529V528ZM689.931 528H689.041V529H689.931V528ZM733.553 528H734.443V529H733.553V528ZM778.955 528H778.064V529H778.955V528ZM822.576 528H823.466V529H822.576V528ZM867.978 528H867.088V529H867.978V528ZM911.599 528H912.49V529H911.599V528ZM957.001 528H956.111V529H957.001V528ZM1000.62 528H1001.51V529H1000.62V528ZM1046.02 528H1045.13V529H1046.02V528ZM1089.65 528H1090.54V529H1089.65V528ZM1135.05 528H1134.16V529H1135.05V528ZM1178.67 528H1179.56V529H1178.67V528ZM1224.07 528H1223.18V529H1224.07V528ZM1267.69 528H1268.58V529H1267.69V528ZM1313.09 528H1312.2V529H1313.09V528ZM15.134 588H16.0242V589H15.134V588ZM65.8773 588H66.7676V589H65.8773V588ZM111.279 588H110.389V589H111.279V588ZM154.901 588H155.791V589H154.901V588ZM200.303 588H199.412V589H200.303V588ZM243.924 588H244.814V589H243.924V588ZM289.326 588H288.436V589H289.326V588ZM332.947 588H333.838V589H332.947V588ZM378.349 588H377.459V589H378.349V588ZM421.971 588H422.861V589H421.971V588ZM467.373 588H466.482V589H467.373V588ZM510.994 588H511.884V589H510.994V588ZM556.396 588H555.506V589H556.396V588ZM600.018 588H600.908V589H600.018V588ZM645.419 588H644.529V589H645.419V588ZM689.041 588H689.931V589H689.041V588ZM734.443 588H733.553V589H734.443V588ZM778.064 588H778.955V589H778.064V588ZM823.466 588H822.576V589H823.466V588ZM867.088 588H867.978V589H867.088V588ZM912.49 588H911.599V589H912.49V588ZM956.111 588H957.001V589H956.111V588ZM1001.51 588H1000.62V589H1001.51V588ZM1045.13 588H1046.02V589H1045.13V588ZM1090.54 588H1089.65V589H1090.54V588ZM1134.16 588H1135.05V589H1134.16V588ZM1179.56 588H1178.67V589H1179.56V588ZM1223.18 588H1224.07V589H1223.18V588ZM1268.58 588H1267.69V589H1268.58V588ZM1312.2 588H1313.09V589H1312.2V588ZM16.0242 648H15.134V649H16.0242V648ZM66.7676 648H65.8773V649H66.7676V648ZM110.389 648H111.279V649H110.389V648ZM155.791 648H154.901V649H155.791V648ZM199.412 648H200.303V649H199.412V648ZM244.814 648H243.924V649H244.814V648ZM288.436 648H289.326V649H288.436V648ZM333.838 648H332.947V649H333.838V648ZM377.459 648H378.349V649H377.459V648ZM422.861 648H421.971V649H422.861V648ZM466.482 648H467.373V649H466.482V648ZM511.884 648H510.994V649H511.884V648ZM555.506 648H556.396V649H555.506V648ZM600.908 648H600.018V649H600.908V648ZM644.529 648H645.419V649H644.529V648ZM689.931 648H689.041V649H689.931V648ZM733.553 648H734.443V649H733.553V648ZM778.955 648H778.064V649H778.955V648ZM822.576 648H823.466V649H822.576V648ZM867.978 648H867.088V649H867.978V648ZM911.599 648H912.49V649H911.599V648ZM957.001 648H956.111V649H957.001V648ZM1000.62 648H1001.51V649H1000.62V648ZM1046.02 648H1045.13V649H1046.02V648ZM1089.65 648H1090.54V649H1089.65V648ZM1135.05 648H1134.16V649H1135.05V648ZM1178.67 648H1179.56V649H1178.67V648ZM1224.07 648H1223.18V649H1224.07V648ZM1267.69 648H1268.58V649H1267.69V648ZM1313.09 648H1312.2V649H1313.09V648ZM15.134 708H16.0242V709H15.134V708ZM65.8773 708H66.7676V709H65.8773V708ZM111.279 708H110.389V709H111.279V708ZM154.901 708H155.791V709H154.901V708ZM200.303 708H199.412V709H200.303V708ZM243.924 708H244.814V709H243.924V708ZM289.326 708H288.436V709H289.326V708ZM332.947 708H333.838V709H332.947V708ZM378.349 708H377.459V709H378.349V708ZM421.971 708H422.861V709H421.971V708ZM467.373 708H466.482V709H467.373V708ZM510.994 708H511.884V709H510.994V708ZM556.396 708H555.506V709H556.396V708ZM600.018 708H600.908V709H600.018V708ZM645.419 708H644.529V709H645.419V708ZM689.041 708H689.931V709H689.041V708ZM734.443 708H733.553V709H734.443V708ZM778.064 708H778.955V709H778.064V708ZM823.466 708H822.576V709H823.466V708ZM867.088 708H867.978V709H867.088V708ZM912.49 708H911.599V709H912.49V708ZM956.111 708H957.001V709H956.111V708ZM1001.51 708H1000.62V709H1001.51V708ZM1045.13 708H1046.02V709H1045.13V708ZM1090.54 708H1089.65V709H1090.54V708ZM1134.16 708H1135.05V709H1134.16V708ZM1179.56 708H1178.67V709H1179.56V708ZM1223.18 708H1224.07V709H1223.18V708ZM1268.58 708H1267.69V709H1268.58V708ZM1312.2 708H1313.09V709H1312.2V708ZM16.0242 768H15.134V769H16.0242V768ZM66.7676 768H65.8773V769H66.7676V768ZM110.389 768H111.279V769H110.389V768ZM155.791 768H154.901V769H155.791V768ZM199.412 768H200.303V769H199.412V768ZM244.814 768H243.924V769H244.814V768ZM288.436 768H289.326V769H288.436V768ZM333.838 768H332.947V769H333.838V768ZM377.459 768H378.349V769H377.459V768ZM422.861 768H421.971V769H422.861V768ZM466.482 768H467.373V769H466.482V768ZM511.884 768H510.994V769H511.884V768ZM555.506 768H556.396V769H555.506V768ZM600.908 768H600.018V769H600.908V768ZM644.529 768H645.419V769H644.529V768ZM689.931 768H689.041V769H689.931V768ZM733.553 768H734.443V769H733.553V768ZM778.955 768H778.064V769H778.955V768ZM822.576 768H823.466V769H822.576V768ZM867.978 768H867.088V769H867.978V768ZM911.599 768H912.49V769H911.599V768ZM957.001 768H956.111V769H957.001V768ZM1000.62 768H1001.51V769H1000.62V768ZM1046.02 768H1045.13V769H1046.02V768ZM1089.65 768H1090.54V769H1089.65V768ZM1135.05 768H1134.16V769H1135.05V768ZM1178.67 768H1179.56V769H1178.67V768ZM1224.07 768H1223.18V769H1224.07V768ZM1267.69 768H1268.58V769H1267.69V768ZM1313.09 768H1312.2V769H1313.09V768ZM15.134 828H16.0242V829H15.134V828ZM65.8773 828H66.7676V829H65.8773V828ZM111.279 828H110.389V829H111.279V828ZM154.901 828H155.791V829H154.901V828ZM200.303 828H199.412V829H200.303V828ZM243.924 828H244.814V829H243.924V828ZM289.326 828H288.436V829H289.326V828ZM332.947 828H333.838V829H332.947V828ZM378.349 828H377.459V829H378.349V828ZM421.971 828H422.861V829H421.971V828ZM467.373 828H466.482V829H467.373V828ZM510.994 828H511.884V829H510.994V828ZM556.396 828H555.506V829H556.396V828ZM600.018 828H600.908V829H600.018V828ZM645.419 828H644.529V829H645.419V828ZM689.041 828H689.931V829H689.041V828ZM734.443 828H733.553V829H734.443V828ZM778.064 828H778.955V829H778.064V828ZM823.466 828H822.576V829H823.466V828ZM867.088 828H867.978V829H867.088V828ZM912.49 828H911.599V829H912.49V828ZM956.111 828H957.001V829H956.111V828ZM1001.51 828H1000.62V829H1001.51V828ZM1045.13 828H1046.02V829H1045.13V828ZM1090.54 828H1089.65V829H1090.54V828ZM1134.16 828H1135.05V829H1134.16V828ZM1179.56 828H1178.67V829H1179.56V828ZM1223.18 828H1224.07V829H1223.18V828ZM1268.58 828H1267.69V829H1268.58V828ZM1312.2 828H1313.09V829H1312.2V828Z" fill="#785D8B"/>
</g>
</svg>
